<?xml version="1.0" encoding="UTF-8" standalone="no"?>
<!-- Created with Inkscape (http://www.inkscape.org/) -->

<svg
   xmlns:dc="http://purl.org/dc/elements/1.1/"
   xmlns:cc="http://creativecommons.org/ns#"
   xmlns:rdf="http://www.w3.org/1999/02/22-rdf-syntax-ns#"
   xmlns:svg="http://www.w3.org/2000/svg"
   xmlns="http://www.w3.org/2000/svg"
   xmlns:sodipodi="http://sodipodi.sourceforge.net/DTD/sodipodi-0.dtd"
   xmlns:inkscape="http://www.inkscape.org/namespaces/inkscape"
   width="744.09448819"
   height="1052.3622047"
   id="svg2"
   version="1.1"
   inkscape:version="0.47 r22583"
   sodipodi:docname="markers.svg">
  <defs
     id="defs4">
    <inkscape:perspective
       sodipodi:type="inkscape:persp3d"
       inkscape:vp_x="0 : 526.18109 : 1"
       inkscape:vp_y="0 : 1000 : 0"
       inkscape:vp_z="744.09448 : 526.18109 : 1"
       inkscape:persp3d-origin="372.04724 : 350.78739 : 1"
       id="perspective10" />
  </defs>
  <sodipodi:namedview
     id="base"
     pagecolor="#ffffff"
     bordercolor="#666666"
     borderopacity="1.0"
     inkscape:pageopacity="0.0"
     inkscape:pageshadow="2"
     inkscape:zoom="1.4142136"
     inkscape:cx="405.82609"
     inkscape:cy="775.97262"
     inkscape:document-units="px"
     inkscape:current-layer="layer1"
     showgrid="true"
     inkscape:snap-center="false"
     inkscape:snap-nodes="true"
     inkscape:snap-grids="true"
     inkscape:object-nodes="false"
     inkscape:object-paths="false"
     inkscape:snap-intersection-paths="false"
     inkscape:window-width="1244"
     inkscape:window-height="768"
     inkscape:window-x="24"
     inkscape:window-y="0"
     inkscape:window-maximized="0"
     inkscape:snap-smooth-nodes="false">
    <inkscape:grid
       type="xygrid"
       id="grid2816"
       empspacing="4"
       visible="true"
       enabled="true"
       snapvisiblegridlinesonly="true"
       spacingx="8px"
       spacingy="8px" />
  </sodipodi:namedview>
  <metadata
     id="metadata7">
    <rdf:RDF>
      <cc:Work
         rdf:about="">
        <dc:format>image/svg+xml</dc:format>
        <dc:type
           rdf:resource="http://purl.org/dc/dcmitype/StillImage" />
        <dc:title />
      </cc:Work>
    </rdf:RDF>
  </metadata>
  <g
     inkscape:label="Layer 1"
     inkscape:groupmode="layer"
     id="layer1">
    <path
       id="path3658"
       style="fill:none;stroke:#000000;stroke-width:1px;stroke-linecap:butt;stroke-linejoin:miter;stroke-opacity:1"
       d="m 196.68629,193.04846 22.62742,22.62742 m 0,-22.62742 -22.62742,22.62742" />
    <path
       id="path2824"
       style="fill:none;stroke:#000000;stroke-width:1px;stroke-linecap:butt;stroke-linejoin:miter;stroke-opacity:1"
       d="m 144,124.36218 16,16 -16,16 -16,-16 16,-16 z m -16,16 32,0 m -16,-16 0,32" />
    <path
       style="fill:none;stroke:#000000;stroke-opacity:1"
       d="m 208,124.36218 2.66667,13.33334 L 224,140.36218 210.66667,143.02885 208,156.36218 205.33333,143.02885 192,140.36218 205.33333,137.69552 208,124.36218 z"
       id="path2828" />
    <path
       style="fill:none;stroke:#000000;stroke-width:1px;stroke-linecap:butt;stroke-linejoin:miter;stroke-opacity:1"
       d="m 280,124.36218 8,8 -8,8 8,8 -8,8 -8,-8 -8,8 -8,-8 8,-8 -8,-8 8,-8 8,8 8,-8 z"
       id="path3602" />
    <path
       sodipodi:type="star"
       style="fill:none;stroke:#000000;stroke-width:2;stroke-miterlimit:4;stroke-opacity:1;stroke-dasharray:none"
       id="path3604"
       sodipodi:sides="5"
       sodipodi:cx="352"
       sodipodi:cy="92.362183"
       sodipodi:r1="32"
       sodipodi:r2="12.22291"
       sodipodi:arg1="-1.5707963"
       sodipodi:arg2="-0.94247818"
       inkscape:flatsided="false"
       inkscape:rounded="0"
       inkscape:randomized="0"
       d="m 352,60.362183 7.18444,22.111455 23.24937,2e-6 -18.80913,13.665625 7.18445,22.111465 L 352,104.58509 l -18.80913,13.66564 7.18445,-22.111456 -18.80913,-13.665636 23.24936,6e-6 L 352,60.362183 z"
       inkscape:transform-center-y="-1.5278642"
       transform="matrix(0.5,0,0,0.5,160,94.181091)" />
    <g
       id="g3690">
      <rect
         y="132.36218"
         x="392"
         height="16"
         width="16"
         id="rect3612"
         style="fill:none;stroke:#000000;stroke-width:1;stroke-linecap:butt;stroke-linejoin:miter;stroke-miterlimit:4;stroke-opacity:1;stroke-dasharray:none;stroke-dashoffset:0" />
      <path
         d="m 384,124.36218 8,8 m -8,24 8,-8 m 24,8 -8,-8 m 8,-24 -8,8"
         style="fill:none;stroke:#000000;stroke-width:1px;stroke-linecap:butt;stroke-linejoin:miter;stroke-opacity:1"
         id="path3620" />
    </g>
    <g
       id="g3694">
      <path
         transform="translate(32,64)"
         d="m 440,76.362183 a 8,8 0 1 1 -16,0 8,8 0 1 1 16,0 z"
         sodipodi:ry="8"
         sodipodi:rx="8"
         sodipodi:cy="76.362183"
         sodipodi:cx="432"
         id="path3622"
         style="fill:none;stroke:#000000;stroke-width:1;stroke-linecap:butt;stroke-linejoin:miter;stroke-miterlimit:4;stroke-opacity:1;stroke-dasharray:none;stroke-dashoffset:0"
         sodipodi:type="arc" />
      <path
         d="m 464,156.36218 0,-8 m -16,-8 8,0 m 24,0 -8,0 m -8,-16 0,8"
         style="fill:none;stroke:#000000;stroke-width:1px;stroke-linecap:butt;stroke-linejoin:miter;stroke-opacity:1"
         id="path3630" />
    </g>
    <path
       id="path3640"
       style="fill:none;stroke:#000000;stroke-width:1px;stroke-linecap:butt;stroke-linejoin:miter;stroke-opacity:1"
       d="m 528,140.36218 c 8,-8 16,-8 16,0 0,8 -8,8 -16,0 z m 0,0 c -8,-8 -16,-8 -16,0 0,8 8,8 16,0 z m 0,0 c -8,8 -8,16 0,16 8,0 8,-8 0,-16 z m 0,0 c -8,-8 -8,-16 0,-16 8,0 8,8 0,16 z" />
    <path
       id="path3648"
       style="fill:none;stroke:#000000;stroke-width:1px;stroke-linecap:butt;stroke-linejoin:miter;stroke-opacity:1"
       d="m 608,148.36218 -8,8 -8,-16 16,8 z m -24,-24 -8,8 16,8 -8,-16 z m -8,24 8,8 8,-16 -16,8 z m 24,-24 8,8 -16,8 8,-16 z" />
    <path
       id="path3652"
       style="fill:none;stroke:#000000;stroke-width:1px;stroke-linecap:butt;stroke-linejoin:miter;stroke-opacity:1"
       d="m 136,188.36218 16,0 c 0,0 -8,8 -8,16 0,8 8,16 8,16 l -16,0 c 0,0 8,-8 8,-16 0,-8 -7.5,-15 -8,-16 z m -8,8 0,16 c 0,0 8,-8 16,-8 8,0 16,8 16,8 l 0,-16 c 0,0 -8,8 -16,8 -8,0 -15.5,-7.5 -16,-8 z" />
    <path
       sodipodi:type="arc"
       style="fill:none;stroke:#000000;stroke-width:1;stroke-linecap:butt;stroke-linejoin:miter;stroke-miterlimit:4;stroke-opacity:1;stroke-dasharray:none;stroke-dashoffset:0"
       id="path3654"
       sodipodi:cx="240"
       sodipodi:cy="140.36218"
       sodipodi:rx="16"
       sodipodi:ry="16"
       d="m 256,140.36218 a 16,16 0 1 1 -32,0 16,16 0 1 1 32,0 z"
       transform="translate(-32,64)" />
    <g
       id="g3701">
      <rect
         y="188.36218"
         x="268"
         height="32"
         width="8"
         id="rect3698"
         style="fill:none;stroke:#000000;stroke-opacity:1" />
      <rect
         y="200.36218"
         x="256"
         height="8"
         width="32"
         id="rect3700"
         style="fill:none;stroke:#000000;stroke-opacity:1" />
    </g>
    <path
       id="path3680"
       style="fill:none;stroke:#000000;stroke-width:1px;stroke-linecap:butt;stroke-linejoin:miter;stroke-opacity:1"
       d="m 320,196.36218 8,8 -8,8 0,-16 z m 32,0 0,16 -8,-8 8,-8 z m -24,8 8,-8 8,8 -8,8 -8,-8 z m 0,16 16,0 -8,-8 -8,8 z m 0,-32 16,0 -8,8 -8,-8 z" />
    <path
       id="path3696"
       style="fill:none;stroke:#000000;stroke-opacity:1"
       d="m 384,204.36218 8,-4 8,4 -8,4 -8,-4 z m 16,0 8,-4 8,4 -8,4 -8,-4 z m 0,0 4,8 -4,8 -4,-8 4,-8 z m 0,-16 4,8 -4,8 -4,-8 4,-8 z" />
    <g
       id="g3707">
      <path
         transform="translate(32,64)"
         d="m 448,140.36218 a 16,16 0 1 1 -32,0 16,16 0 1 1 32,0 z"
         sodipodi:ry="16"
         sodipodi:rx="16"
         sodipodi:cy="140.36218"
         sodipodi:cx="432"
         id="path3702"
         style="fill:none;stroke:#000000;stroke-width:1;stroke-linecap:butt;stroke-linejoin:miter;stroke-miterlimit:4;stroke-opacity:1;stroke-dasharray:none;stroke-dashoffset:0"
         sodipodi:type="arc" />
      <path
         sodipodi:nodetypes="cscsc"
         d="m 448,204.36218 c 0,-4.41828 3.58172,-8 8,-8 4.41828,0 8,3.58172 8,8 0,4.41828 3.58172,8 8,8 4.41828,0 8,-3.58172 8,-8"
         style="fill:none;stroke:#000000;stroke-width:1;stroke-linecap:butt;stroke-linejoin:miter;stroke-miterlimit:4;stroke-opacity:1;stroke-dashoffset:0"
         id="path3765" />
    </g>
    <path
       id="path3717"
       style="fill:none;stroke:#000000;stroke-opacity:1"
       d="m 519.51472,207.19061 11.31371,-11.31371 8.48528,-2.82843 -2.82843,8.48528 -11.31371,11.31371 -8.48528,2.82843 2.82843,-8.48528 z m 11.31371,5.65685 -11.31371,-11.31371 -2.82843,-8.48528 8.48528,2.82843 11.31371,11.31371 2.82843,8.48528 -8.48528,-2.82843 z" />
    <path
       style="fill:none;stroke:#000000;stroke-width:1px;stroke-linecap:butt;stroke-linejoin:miter;stroke-opacity:1"
       d="m 586.66667,188.36218 5.33333,5.33333 5.33333,-5.33333 0,10.66667 10.66667,0 -5.33333,5.33333 5.33333,5.33333 -10.66667,0 0,10.66667 -5.33333,-5.33333 -5.33333,5.33333 0,-10.66667 -10.66667,0 5.33333,-5.33333 -5.33333,-5.33333 10.66667,0 0,-10.66667 z"
       id="path3745" />
    <g
       id="g3712">
      <path
         inkscape:transform-center-y="8.1428686"
         transform="matrix(0,-0.50892855,0.5090211,0,39.975336,333.43362)"
         d="m 128,204.36218 -8,13.85641 -16,0 -8,-13.85641 8,-13.8564 16,0 8,13.8564 z"
         inkscape:randomized="0"
         inkscape:rounded="0"
         inkscape:flatsided="true"
         sodipodi:arg2="0.5235988"
         sodipodi:arg1="0"
         sodipodi:r2="6.0772676"
         sodipodi:r1="16"
         sodipodi:cy="204.36218"
         sodipodi:cx="112"
         sodipodi:sides="6"
         id="path3749"
         style="fill:none;stroke:#000000;stroke-width:1.96473372;stroke-miterlimit:4;stroke-opacity:1;stroke-dasharray:none"
         sodipodi:type="star" />
      <path
         inkscape:transform-center-y="-4.0714218"
         inkscape:transform-center-x="-7.0531995"
         transform="matrix(0,-0.50892855,0.5090211,0,47.028535,321.21933)"
         sodipodi:type="star"
         style="fill:none;stroke:#000000;stroke-width:1.96473372;stroke-miterlimit:4;stroke-opacity:1;stroke-dasharray:none"
         id="path3751"
         sodipodi:sides="6"
         sodipodi:cx="112"
         sodipodi:cy="204.36218"
         sodipodi:r1="16"
         sodipodi:r2="6.0772676"
         sodipodi:arg1="0"
         sodipodi:arg2="0.5235988"
         inkscape:flatsided="true"
         inkscape:rounded="0"
         inkscape:randomized="0"
         d="m 128,204.36218 -8,13.85641 -16,0 -8,-13.85641 8,-13.8564 16,0 8,13.8564 z" />
      <path
         inkscape:transform-center-y="-4.0714218"
         inkscape:transform-center-x="7.053201"
         d="m 128,204.36218 -8,13.85641 -16,0 -8,-13.85641 8,-13.8564 16,0 8,13.8564 z"
         inkscape:randomized="0"
         inkscape:rounded="0"
         inkscape:flatsided="true"
         sodipodi:arg2="0.5235988"
         sodipodi:arg1="0"
         sodipodi:r2="6.0772676"
         sodipodi:r1="16"
         sodipodi:cy="204.36218"
         sodipodi:cx="112"
         sodipodi:sides="6"
         id="path3753"
         style="fill:none;stroke:#000000;stroke-width:1.96473372;stroke-miterlimit:4;stroke-opacity:1;stroke-dasharray:none"
         sodipodi:type="star"
         transform="matrix(0,-0.50892855,0.5090211,0,32.922135,321.21933)" />
    </g>
    <g
       id="g3717">
      <path
         transform="translate(32,64)"
         d="m 176,188.36218 13.85641,24 -27.71282,0 13.85641,-24 z"
         inkscape:randomized="0"
         inkscape:rounded="0"
         inkscape:flatsided="true"
         sodipodi:arg2="-0.52359875"
         sodipodi:arg1="-1.5707963"
         sodipodi:r2="13.856406"
         sodipodi:r1="16"
         sodipodi:cy="204.36218"
         sodipodi:cx="176"
         sodipodi:sides="3"
         id="path3755"
         style="fill:none;stroke:#000000;stroke-width:1;stroke-linecap:butt;stroke-linejoin:miter;stroke-miterlimit:4;stroke-opacity:1;stroke-dasharray:none;stroke-dashoffset:0"
         sodipodi:type="star" />
      <path
         transform="translate(32,64)"
         d="m 176,212.36218 -6.9282,-12 13.8564,0 -6.9282,12 z"
         inkscape:randomized="0"
         inkscape:rounded="0"
         inkscape:flatsided="true"
         sodipodi:arg2="2.6179939"
         sodipodi:arg1="1.5707963"
         sodipodi:r2="4"
         sodipodi:r1="8"
         sodipodi:cy="204.36218"
         sodipodi:cx="176"
         sodipodi:sides="3"
         id="path3757"
         style="fill:none;stroke:#000000;stroke-width:1;stroke-linecap:butt;stroke-linejoin:miter;stroke-miterlimit:4;stroke-opacity:1;stroke-dasharray:none;stroke-dashoffset:0"
         sodipodi:type="star" />
    </g>
    <g
       id="g3721">
      <path
         inkscape:transform-center-y="-3.9999998"
         transform="translate(96,64)"
         sodipodi:type="star"
         style="fill:none;stroke:#000000;stroke-width:1;stroke-linecap:butt;stroke-linejoin:miter;stroke-miterlimit:4;stroke-opacity:1;stroke-dasharray:none;stroke-dashoffset:0"
         id="path3823"
         sodipodi:sides="3"
         sodipodi:cx="176"
         sodipodi:cy="204.36218"
         sodipodi:r1="16"
         sodipodi:r2="13.856406"
         sodipodi:arg1="-1.5707963"
         sodipodi:arg2="-0.52359875"
         inkscape:flatsided="true"
         inkscape:rounded="0"
         inkscape:randomized="0"
         d="m 176,188.36218 13.85641,24 -27.71282,0 13.85641,-24 z" />
      <path
         inkscape:transform-center-y="4.0000046"
         d="m 176,188.36218 13.85641,24 -27.71282,0 13.85641,-24 z"
         inkscape:randomized="0"
         inkscape:rounded="0"
         inkscape:flatsided="true"
         sodipodi:arg2="-0.52359875"
         sodipodi:arg1="-1.5707963"
         sodipodi:r2="13.856406"
         sodipodi:r1="16"
         sodipodi:cy="204.36218"
         sodipodi:cx="176"
         sodipodi:sides="3"
         id="path3825"
         style="fill:none;stroke:#000000;stroke-width:1;stroke-linecap:butt;stroke-linejoin:miter;stroke-miterlimit:4;stroke-opacity:1;stroke-dasharray:none;stroke-dashoffset:0"
         sodipodi:type="star"
         transform="matrix(1,0,0,-1,96,472.72437)" />
    </g>
    <g
       id="g3726">
      <path
         transform="matrix(0.64583334,0,0,0.64583334,139.66666,136.37828)"
         d="m 312,204.36218 a 8,8 0 1 1 -16,0 8,8 0 1 1 16,0 z"
         sodipodi:ry="8"
         sodipodi:rx="8"
         sodipodi:cy="204.36218"
         sodipodi:cx="304"
         id="path3836"
         style="fill:none;stroke:#000000;stroke-width:1.54838717;stroke-linecap:butt;stroke-linejoin:miter;stroke-miterlimit:4;stroke-opacity:1;stroke-dasharray:none;stroke-dashoffset:0"
         sodipodi:type="arc" />
      <path
         d="m 330.08017,262.38424 2.26645,2.32456 m -2.32456,9.57321 2.32456,-2.26645 m 9.57321,2.32456 -2.26645,-2.32456 m 2.32456,-9.57321 -2.32456,2.26645 m 2.00347,9.31023 c 0,11.31371 -11.3137,11.31371 -11.3137,0 -11.31371,0 -11.31371,-11.3137 0,-11.3137 0,-11.31371 11.3137,-11.31371 11.3137,0 11.31371,0 11.31371,11.3137 0,11.3137 z"
         style="fill:none;stroke:#000000;stroke-width:1px;stroke-linecap:butt;stroke-linejoin:miter;stroke-opacity:1"
         id="path3863" />
    </g>
    <g
       id="g3730">
      <path
         transform="matrix(0.33333333,0,0,0.33333333,266.66666,178.90812)"
         d="m 416,268.36218 a 16,16 0 1 1 -32,0 16,16 0 1 1 32,0 z"
         sodipodi:ry="16"
         sodipodi:rx="16"
         sodipodi:cy="268.36218"
         sodipodi:cx="400"
         id="path3866"
         style="fill:none;stroke:#000000;stroke-width:3;stroke-miterlimit:4;stroke-opacity:1;stroke-dasharray:none"
         sodipodi:type="arc" />
      <path
         transform="matrix(0.33333333,0,0,0.33333333,266.66666,178.90812)"
         inkscape:transform-center-x="-2.8333252"
         sodipodi:open="true"
         sodipodi:end="7.8539816"
         sodipodi:start="4.712389"
         d="m 400,220.36218 a 16,16 0 0 1 0,32"
         sodipodi:ry="16"
         sodipodi:rx="16"
         sodipodi:cy="236.36218"
         sodipodi:cx="400"
         id="path3868"
         style="fill:none;stroke:#000000;stroke-width:3;stroke-miterlimit:4;stroke-opacity:1;stroke-dasharray:none"
         sodipodi:type="arc" />
      <path
         inkscape:transform-center-y="2.8333348"
         transform="matrix(0,0.33333333,-0.33333333,0,489.45406,135.02885)"
         sodipodi:type="arc"
         style="fill:none;stroke:#000000;stroke-width:3;stroke-miterlimit:4;stroke-opacity:1;stroke-dasharray:none"
         id="path3872"
         sodipodi:cx="400"
         sodipodi:cy="236.36218"
         sodipodi:rx="16"
         sodipodi:ry="16"
         d="m 400,220.36218 a 16,16 0 0 1 0,32"
         sodipodi:start="4.712389"
         sodipodi:end="7.8539816"
         sodipodi:open="true" />
      <path
         inkscape:transform-center-x="2.8333244"
         sodipodi:open="true"
         sodipodi:end="7.8539816"
         sodipodi:start="4.712389"
         d="m 400,220.36218 a 16,16 0 0 1 0,32"
         sodipodi:ry="16"
         sodipodi:rx="16"
         sodipodi:cy="236.36218"
         sodipodi:cx="400"
         id="path3874"
         style="fill:none;stroke:#000000;stroke-width:3;stroke-miterlimit:4;stroke-opacity:1;stroke-dasharray:none"
         sodipodi:type="arc"
         transform="matrix(-0.33333333,0,0,-0.33333333,533.33334,357.81625)" />
      <path
         inkscape:transform-center-y="-2.8333281"
         transform="matrix(0,-0.33333333,0.33333333,0,310.54594,401.69552)"
         sodipodi:type="arc"
         style="fill:none;stroke:#000000;stroke-width:3;stroke-miterlimit:4;stroke-opacity:1;stroke-dasharray:none"
         id="path3876"
         sodipodi:cx="400"
         sodipodi:cy="236.36218"
         sodipodi:rx="16"
         sodipodi:ry="16"
         d="m 400,220.36218 a 16,16 0 0 1 0,32"
         sodipodi:start="4.712389"
         sodipodi:end="7.8539816"
         sodipodi:open="true" />
    </g>
    <g
       id="g3737">
      <path
         transform="translate(-16,64)"
         sodipodi:open="true"
         sodipodi:end="7.8539816"
         sodipodi:start="4.712389"
         d="m 464,188.36218 a 16,16 0 0 1 0,32"
         sodipodi:ry="16"
         sodipodi:rx="16"
         sodipodi:cy="204.36218"
         sodipodi:cx="464"
         id="path3890"
         style="fill:none;stroke:#000000;stroke-width:1;stroke-linecap:butt;stroke-linejoin:miter;stroke-miterlimit:4;stroke-opacity:1;stroke-dasharray:none;stroke-dashoffset:0"
         sodipodi:type="arc" />
      <path
         sodipodi:type="arc"
         style="fill:none;stroke:#000000;stroke-width:1;stroke-linecap:butt;stroke-linejoin:miter;stroke-miterlimit:4;stroke-opacity:1;stroke-dasharray:none;stroke-dashoffset:0"
         id="path3892"
         sodipodi:cx="464"
         sodipodi:cy="204.36218"
         sodipodi:rx="16"
         sodipodi:ry="16"
         d="m 464,188.36218 a 16,16 0 0 1 0,32"
         sodipodi:start="4.712389"
         sodipodi:end="7.8539816"
         sodipodi:open="true"
         transform="matrix(-1,0,0,1,944,64)" />
      <path
         sodipodi:type="arc"
         style="fill:none;stroke:#000000;stroke-width:1;stroke-linecap:butt;stroke-linejoin:miter;stroke-miterlimit:4;stroke-opacity:1;stroke-dasharray:none;stroke-dashoffset:0"
         id="path3894"
         sodipodi:cx="464"
         sodipodi:cy="204.36218"
         sodipodi:rx="16"
         sodipodi:ry="16"
         d="m 464,188.36218 a 16,16 0 0 1 0,32"
         sodipodi:start="4.712389"
         sodipodi:end="7.8539816"
         sodipodi:open="true"
         transform="matrix(0,1,-1,0,668.36218,-211.63782)" />
      <path
         transform="matrix(0,-1,-1,0,668.36218,748.36218)"
         sodipodi:open="true"
         sodipodi:end="7.8539816"
         sodipodi:start="4.712389"
         d="m 464,188.36218 a 16,16 0 0 1 0,32"
         sodipodi:ry="16"
         sodipodi:rx="16"
         sodipodi:cy="204.36218"
         sodipodi:cx="464"
         id="path3896"
         style="fill:none;stroke:#000000;stroke-width:1;stroke-linecap:butt;stroke-linejoin:miter;stroke-miterlimit:4;stroke-opacity:1;stroke-dasharray:none;stroke-dashoffset:0"
         sodipodi:type="arc" />
    </g>
    <path
       id="path3999"
       style="fill:none;stroke:#000000;stroke-opacity:1"
       d="m 517.33333,265.69552 c -2.94552,0 -5.33333,-2.38781 -5.33333,-5.33333 0,-4.41828 3.58172,-8 7.99999,-8 2.94553,0 5.33333,2.38781 5.33333,5.33334 l 0,7.99999 -7.99999,0 z m 0,5.33333 c -2.94552,0 -5.33333,2.38782 -5.33333,5.33334 0,4.41827 3.58172,8 7.99999,8 2.94553,0 5.33333,-2.38781 5.33333,-5.33334 l 0,-8 -7.99999,0 z m 21.33333,0 c 2.94552,0 5.33333,2.38782 5.33333,5.33334 0,4.41827 -3.58172,8 -7.99999,8 -2.94553,0 -5.33333,-2.38781 -5.33333,-5.33334 l 0,-8 7.99999,0 z m 0,-5.33333 c 2.94552,0 5.33333,-2.38781 5.33333,-5.33333 0,-4.41828 -3.58172,-8 -7.99999,-8 -2.94553,0 -5.33333,2.38781 -5.33333,5.33334 l 0,7.99999 7.99999,0 z m -13.33329,1e-5 5.33334,0 0,5.33333 -5.33334,0 0,-5.33333 z" />
    <g
       id="g3750">
      <path
         inkscape:transform-center-y="-8"
         sodipodi:nodetypes="ccssc"
         id="path4003"
         d="m 597.33334,257.69552 c 0,2.94552 -4,8 -5.33334,10.66666 -1.33334,-2.66666 -5.33334,-7.72114 -5.33334,-10.66666 0,-2.94552 2.38782,-5.33334 5.33334,-5.33334 2.94552,0 5.33334,2.38782 5.33334,5.33334 z"
         style="fill:none;stroke:#000000;stroke-opacity:1" />
      <path
         inkscape:transform-center-x="-7.2859613"
         style="fill:none;stroke:#000000;stroke-width:1;stroke-opacity:1"
         d="m 598.57098,278.31432 c -2.5509,-1.47276 -4.92821,-7.4641 -6.57093,-9.95214 2.97606,0.17862 9.35337,-0.75824 11.90427,0.71452 2.55089,1.47276 3.42489,4.73458 1.95213,7.28548 -1.47276,2.55089 -4.73458,3.4249 -7.28547,1.95214 z"
         id="path4019"
         sodipodi:nodetypes="ccssc"
         inkscape:transform-center-y="5.2680878" />
      <path
         inkscape:transform-center-y="5.2681286"
         sodipodi:nodetypes="ccssc"
         id="path4021"
         d="m 580.09575,269.07675 c 2.5509,-1.47277 8.92821,-0.53591 11.90427,-0.71453 -1.64272,2.48804 -4.02003,8.47938 -6.57092,9.95214 -2.5509,1.47276 -5.81272,0.59875 -7.28548,-1.95214 -1.47276,-2.5509 -0.59876,-5.81272 1.95213,-7.28547 z"
         style="fill:none;stroke:#000000;stroke-width:1;stroke-opacity:1"
         inkscape:transform-center-x="7.2858912" />
    </g>
    <g
       id="g3755">
      <rect
         transform="matrix(0.70710678,-0.70710678,0.70710678,0.70710678,0,0)"
         y="326.17236"
         x="-143.85884"
         height="8.8888884"
         width="8.8888884"
         id="rect4025"
         style="fill:none;stroke:#000000;stroke-width:1;stroke-opacity:1" />
      <rect
         transform="matrix(0.70710678,-0.70710678,0.70710678,0.70710678,0,0)"
         y="326.17236"
         x="-131.41443"
         height="8.8888884"
         width="8.8888884"
         id="rect4027"
         style="fill:none;stroke:#000000;stroke-width:1;stroke-opacity:1" />
      <rect
         transform="matrix(0.70710678,-0.70710678,0.70710678,0.70710678,0,0)"
         y="338.61676"
         x="-143.85884"
         height="8.8888884"
         width="8.8888884"
         id="rect4029"
         style="fill:none;stroke:#000000;stroke-width:1;stroke-opacity:1" />
      <rect
         transform="matrix(0.70710678,-0.70710678,0.70710678,0.70710678,0,0)"
         y="338.61676"
         x="-131.41443"
         height="8.8888884"
         width="8.8888884"
         id="rect4031"
         style="fill:none;stroke:#000000;stroke-width:1;stroke-opacity:1" />
    </g>
    <path
       id="path4039"
       style="fill:none;stroke:#000000;stroke-opacity:1"
       d="m 205.33333,348.36218 0,-13.33333 -13.33333,0 0,5.33333 8,0 0,8 5.33333,0 z m 5.33334,0 0,-13.33333 13.33333,0 0,5.33333 -8,0 0,8 -5.33333,0 z m 0,-32 0,13.33333 13.33333,0 0,-5.33333 -8,0 0,-8 -5.33333,0 z m -5.33334,0 0,13.33333 -13.33333,0 0,-5.33333 8,0 0,-8 5.33333,0 z" />
    <path
       style="fill:none;stroke:#000000;stroke-opacity:1"
       d="m 256,316.36218 12,0 0,8 8,0 0,-8 12,0 0,12 -8,0 0,8 8,0 0,12 -12,0 0,-8 -8,0 0,8 -12,0 0,-12 8,0 0,-8 -8,0 0,-12 z"
       id="path4043"
       sodipodi:nodetypes="ccccccccccccccccccccc" />
    <g
       id="g3763">
      <path
         transform="matrix(0.47916667,0,0,0.47916667,184.25,197.68864)"
         d="m 312,264.36218 a 12,12 0 1 1 -24,0 12,12 0 1 1 24,0 z"
         sodipodi:ry="12"
         sodipodi:rx="12"
         sodipodi:cy="264.36218"
         sodipodi:cx="300"
         id="path4045"
         style="fill:none;stroke:#000000;stroke-width:2.0869565;stroke-linecap:butt;stroke-linejoin:miter;stroke-miterlimit:4;stroke-opacity:1;stroke-dasharray:none;stroke-dashoffset:0"
         sodipodi:type="arc" />
      <path
         sodipodi:type="arc"
         style="fill:none;stroke:#000000;stroke-width:2.0869565;stroke-linecap:butt;stroke-linejoin:miter;stroke-miterlimit:4;stroke-opacity:1;stroke-dasharray:none;stroke-dashoffset:0"
         id="path4047"
         sodipodi:cx="300"
         sodipodi:cy="264.36218"
         sodipodi:rx="12"
         sodipodi:ry="12"
         d="m 312,264.36218 a 12,12 0 1 1 -24,0 12,12 0 1 1 24,0 z"
         transform="matrix(0.47916667,0,0,0.47916667,200.25,197.68864)" />
      <path
         transform="matrix(0.47916667,0,0,0.47916667,200.25,213.68864)"
         d="m 312,264.36218 a 12,12 0 1 1 -24,0 12,12 0 1 1 24,0 z"
         sodipodi:ry="12"
         sodipodi:rx="12"
         sodipodi:cy="264.36218"
         sodipodi:cx="300"
         id="path4049"
         style="fill:none;stroke:#000000;stroke-width:2.0869565;stroke-linecap:butt;stroke-linejoin:miter;stroke-miterlimit:4;stroke-opacity:1;stroke-dasharray:none;stroke-dashoffset:0"
         sodipodi:type="arc" />
      <path
         sodipodi:type="arc"
         style="fill:none;stroke:#000000;stroke-width:2.0869565;stroke-linecap:butt;stroke-linejoin:miter;stroke-miterlimit:4;stroke-opacity:1;stroke-dasharray:none;stroke-dashoffset:0"
         id="path4051"
         sodipodi:cx="300"
         sodipodi:cy="264.36218"
         sodipodi:rx="12"
         sodipodi:ry="12"
         d="m 312,264.36218 a 12,12 0 1 1 -24,0 12,12 0 1 1 24,0 z"
         transform="matrix(0.47916667,0,0,0.47916667,184.25,213.68864)" />
      <path
         d="m 332.06587,328.42805 7.86827,7.86827 m -1e-5,-7.86827 -7.86827,7.86827"
         style="fill:none;stroke:#000000;stroke-width:1px;stroke-linecap:butt;stroke-linejoin:miter;stroke-opacity:1"
         id="path4061" />
    </g>
    <path
       id="path4079"
       style="fill:none;stroke:#000000;stroke-opacity:1"
       d="m 384,327.02885 0,10.58334 c 5.89104,0.0833 10.66667,4.85896 10.66667,10.75 l 10.66666,0 c 0,-5.89104 4.77563,-10.66667 10.66667,-10.66667 l 0,-10.66667 c -5.89104,0 -10.66667,-4.77563 -10.66667,-10.66667 l -10.66666,0 c 0,5.89104 -4.77563,10.66667 -10.66667,10.66667 z"
       sodipodi:nodetypes="ccccccccc" />
    <g
       id="g3770">
      <path
         transform="translate(32,64)"
         inkscape:transform-center-y="-6.0000001"
         d="m 432,268.36218 -6.9282,-12 13.8564,0 -6.9282,12 z"
         inkscape:randomized="0"
         inkscape:rounded="0"
         inkscape:flatsided="true"
         sodipodi:arg2="2.6179939"
         sodipodi:arg1="1.5707963"
         sodipodi:r2="6.9282031"
         sodipodi:r1="8"
         sodipodi:cy="260.36218"
         sodipodi:cx="432"
         sodipodi:sides="3"
         id="path4096"
         style="fill:none;stroke:#000000;stroke-opacity:1"
         sodipodi:type="star" />
      <path
         inkscape:transform-center-x="-6.9282067"
         transform="matrix(-0.5,0.8660254,-0.8660254,-0.5,912.40847,92.4203)"
         sodipodi:type="star"
         style="fill:none;stroke:#000000;stroke-opacity:1"
         id="path4098"
         sodipodi:sides="3"
         sodipodi:cx="432"
         sodipodi:cy="260.36218"
         sodipodi:r1="8"
         sodipodi:r2="6.9282031"
         sodipodi:arg1="1.5707963"
         sodipodi:arg2="2.6179939"
         inkscape:flatsided="true"
         inkscape:rounded="0"
         inkscape:randomized="0"
         d="m 432,268.36218 -6.9282,-12 13.8564,0 -6.9282,12 z"
         inkscape:transform-center-y="5.9999988" />
      <path
         inkscape:transform-center-y="6.0000032"
         d="m 432,268.36218 -6.9282,-12 13.8564,0 -6.9282,12 z"
         inkscape:randomized="0"
         inkscape:rounded="0"
         inkscape:flatsided="true"
         sodipodi:arg2="2.6179939"
         sodipodi:arg1="1.5707963"
         sodipodi:r2="6.9282031"
         sodipodi:r1="8"
         sodipodi:cy="260.36218"
         sodipodi:cx="432"
         sodipodi:sides="3"
         id="path4100"
         style="fill:none;stroke:#000000;stroke-opacity:1"
         sodipodi:type="star"
         transform="matrix(-0.5,-0.8660254,0.8660254,-0.5,447.59153,840.66625)"
         inkscape:transform-center-x="6.9282066" />
    </g>
    <g
       id="g3775">
      <path
         inkscape:transform-center-y="-6"
         transform="translate(32,58)"
         sodipodi:type="arc"
         style="fill:none;stroke:#000000;stroke-width:1;stroke-linecap:butt;stroke-linejoin:miter;stroke-miterlimit:4;stroke-opacity:1;stroke-dasharray:none;stroke-dashoffset:0"
         id="path4108"
         sodipodi:cx="496"
         sodipodi:cy="268.36218"
         sodipodi:rx="8"
         sodipodi:ry="8"
         d="m 504,268.36218 a 8,8 0 1 1 -16,0 8,8 0 1 1 16,0 z" />
      <path
         inkscape:transform-center-x="-5.1961535"
         d="m 504,268.36218 a 8,8 0 1 1 -16,0 8,8 0 1 1 16,0 z"
         sodipodi:ry="8"
         sodipodi:rx="8"
         sodipodi:cy="268.36218"
         sodipodi:cx="496"
         id="path4120"
         style="fill:none;stroke:#000000;stroke-width:1;stroke-linecap:butt;stroke-linejoin:miter;stroke-miterlimit:4;stroke-opacity:1;stroke-dasharray:none;stroke-dashoffset:0"
         sodipodi:type="arc"
         transform="matrix(-0.5,0.8660254,-0.8660254,-0.5,1013.6046,39.994674)"
         inkscape:transform-center-y="2.9999985" />
      <path
         inkscape:transform-center-y="2.9999977"
         transform="matrix(-0.5,-0.8660254,0.8660254,-0.5,538.39538,899.09187)"
         sodipodi:type="arc"
         style="fill:none;stroke:#000000;stroke-width:1;stroke-linecap:butt;stroke-linejoin:miter;stroke-miterlimit:4;stroke-opacity:1;stroke-dasharray:none;stroke-dashoffset:0"
         id="path4122"
         sodipodi:cx="496"
         sodipodi:cy="268.36218"
         sodipodi:rx="8"
         sodipodi:ry="8"
         d="m 504,268.36218 a 8,8 0 1 1 -16,0 8,8 0 1 1 16,0 z"
         inkscape:transform-center-x="5.1961534" />
    </g>
    <path
       d="m 592,318.50578 12,20.78461 -24,0 12,-20.78461 z m 16,13.8564 -8,13.85641 -16,0 -8,-13.85641 8,-13.8564 16,0 8,13.8564 z"
       style="fill:none;stroke:#000000;stroke-width:1px;stroke-linecap:butt;stroke-linejoin:miter;stroke-opacity:1"
       id="path4145" />
    <g
       id="g3784">
      <rect
         y="391.02884"
         x="138.66667"
         height="10.666667"
         width="10.666667"
         id="rect2903"
         style="fill:none;stroke:#000000;stroke-opacity:1" />
      <path
         sodipodi:nodetypes="cccc"
         id="path2905"
         d="M 146.66667,391.02885 136,380.36218 l -5.33333,0 10.66666,10.66667"
         style="fill:none;stroke:#000000;stroke-opacity:1" />
      <path
         style="fill:none;stroke:#000000;stroke-opacity:1"
         d="M 149.33333,399.02885 160,388.36218 l 0,-5.33333 -10.66667,10.66666"
         id="path2907"
         sodipodi:nodetypes="cccc" />
      <path
         sodipodi:nodetypes="cccc"
         id="path2909"
         d="M 141.33333,401.69551 152,412.36218 l 5.33333,0 -10.66666,-10.66667"
         style="fill:none;stroke:#000000;stroke-opacity:1" />
      <path
         style="fill:none;stroke:#000000;stroke-opacity:1"
         d="M 138.66667,393.69551 128,404.36218 l 0,5.33333 10.66667,-10.66666"
         id="path2911"
         sodipodi:nodetypes="cccc" />
    </g>
    <path
       id="path3799"
       style="fill:none;stroke:#000000;stroke-width:1px;stroke-linecap:butt;stroke-linejoin:miter;stroke-opacity:1"
       d="m 208,380.36218 16,0 m -32,16 0,-16 m 16,32 -16,0 m 32,-16 0,16 m -16,-32 16,16 -16,16 -16,-16 16,-16 z" />
    <path
       id="path3812"
       style="fill:none;stroke:#000000;stroke-width:1px;stroke-linecap:butt;stroke-linejoin:miter;stroke-opacity:1"
       d="m 256,396.36218 0,-16 16,0 0,8 -8,0 0,8 -8,0 z m 16,16 -16,0 0,-16 8,0 0,8 8,0 0,8 z m 16,-16 0,16 -16,0 0,-8 8,0 0,-8 8,0 z m -16,-16 16,0 0,16 -8,0 0,-8 -8,0 0,-8 z" />
    <path
       id="path3834"
       style="fill:none;stroke:#000000;stroke-width:1px;stroke-linecap:butt;stroke-linejoin:miter;stroke-opacity:1"
       d="m 328,380.36218 2.66666,10.66666 L 320,388.36218 m 8,24 2.66666,-10.66667 L 320,404.36218 m 32,0 -10.66668,-2.66667 L 344,412.36218 m 8,-24 -10.66668,2.66666 L 344,380.36218 m -13.33334,10.66666 10.66666,0 0,10.66667 -10.66666,0 0,-10.66667 z M 320,388.36218 l 8,-8 -8,0 0,8 z m 8,24 -8,-8 0,8 8,0 z m 24,-8 -8,8 8,0 0,-8 z m -8,-24 8,8 0,-8 -8,0 z" />
    <path
       id="path3881"
       style="fill:none;stroke:#000000;stroke-width:1px;stroke-linecap:butt;stroke-linejoin:miter;stroke-opacity:1"
       d="m 394,399.82629 9.99999,-17.32051 M 406,399.82629 l -20,0 m 14,-10.39231 10,17.32051 m 6,-10.39231 -8,13.85641 -16,0 -8,-13.85641 8,-13.8564 16,0 8,13.8564 z" />
    <g
       id="g3933">
      <path
         sodipodi:open="true"
         transform="matrix(0.49999974,0,0,0.49999974,248.00011,182.1812)"
         sodipodi:end="1.5707963"
         sodipodi:start="0"
         d="m 464,444.36218 a 16,16 0 0 1 -16,16"
         sodipodi:ry="16"
         sodipodi:rx="16"
         sodipodi:cy="444.36218"
         sodipodi:cx="448"
         id="path3887"
         style="fill:none;stroke:#000000;stroke-width:2.00000095;stroke-miterlimit:4;stroke-opacity:1;stroke-dasharray:none"
         sodipodi:type="arc" />
      <path
         sodipodi:type="arc"
         style="fill:none;stroke:#000000;stroke-width:2.00000095;stroke-miterlimit:4;stroke-opacity:1;stroke-dasharray:none"
         id="path3889"
         sodipodi:cx="448"
         sodipodi:cy="444.36218"
         sodipodi:rx="16"
         sodipodi:ry="16"
         d="m 464,444.36218 a 16,16 0 0 1 -16,16"
         sodipodi:start="0"
         sodipodi:end="1.5707963"
         transform="matrix(0,0.49999974,-0.49999974,0,678.18098,180.36229)"
         sodipodi:open="true" />
      <path
         sodipodi:open="true"
         transform="matrix(-0.49999974,0,0,-0.49999974,679.99989,610.54317)"
         sodipodi:end="1.5707963"
         sodipodi:start="0"
         d="m 464,444.36218 a 16,16 0 0 1 -16,16"
         sodipodi:ry="16"
         sodipodi:rx="16"
         sodipodi:cy="444.36218"
         sodipodi:cx="448"
         id="path3891"
         style="fill:none;stroke:#000000;stroke-width:2.00000095;stroke-miterlimit:4;stroke-opacity:1;stroke-dasharray:none"
         sodipodi:type="arc" />
      <path
         sodipodi:type="arc"
         style="fill:none;stroke:#000000;stroke-width:2.00000095;stroke-miterlimit:4;stroke-opacity:1;stroke-dasharray:none"
         id="path3893"
         sodipodi:cx="448"
         sodipodi:cy="444.36218"
         sodipodi:rx="16"
         sodipodi:ry="16"
         d="m 464,444.36218 a 16,16 0 0 1 -16,16"
         sodipodi:start="0"
         sodipodi:end="1.5707963"
         transform="matrix(0,-0.49999974,0.49999974,0,249.81901,612.36207)"
         sodipodi:open="true" />
      <path
         d="m 447.99999,388.36217 23.99999,0 M 456,412.36216 l 0,-23.99999 m 23.99999,15.99998 -23.99999,0 m 15.99998,-23.99998 0,23.99998 m -23.99999,0 0,-15.99998 m 23.99999,23.99999 -15.99998,0 m 23.99999,-23.99999 0,15.99998 M 456,380.36217 l 15.99998,0"
         style="fill:none;stroke:#000000;stroke-width:0.99999994000000003;stroke-miterlimit:4;stroke-opacity:1;stroke-dasharray:none;fill-opacity:1"
         id="path3911" />
    </g>
    <path
       id="path3981"
       style="fill:none;stroke:#000000;stroke-width:1px;stroke-linecap:butt;stroke-linejoin:miter;stroke-opacity:1"
       d="m 519.00102,385.16661 -5.19616,9 8.99898,5.19556 0,10.39113 10.3923,10e-6 0,-10.39113 8.99898,-5.19556 -5.19614,-9.00001 -8.99898,5.19557 -8.99898,-5.19557 z"
       sodipodi:nodetypes="cccccccccc" />
    <g
       id="g4004">
      <path
         d="m 600,396.36218 a 8,8 0 1 1 -16,0 8,8 0 1 1 16,0 z"
         sodipodi:ry="8"
         sodipodi:rx="8"
         sodipodi:cy="396.36218"
         sodipodi:cx="592"
         id="path3994"
         style="fill:none;stroke:#000000;stroke-width:1;stroke-linecap:butt;stroke-linejoin:miter;stroke-miterlimit:4;stroke-opacity:1;stroke-dasharray:none;stroke-dashoffset:0"
         sodipodi:type="arc" />
      <path
         transform="translate(4,4)"
         d="m 584,384.36218 a 4,4 0 1 1 -8,0 4,4 0 1 1 8,0 z"
         sodipodi:ry="4"
         sodipodi:rx="4"
         sodipodi:cy="384.36218"
         sodipodi:cx="580"
         id="path3996"
         style="fill:none;stroke:#000000;stroke-width:1;stroke-linecap:butt;stroke-linejoin:miter;stroke-miterlimit:4;stroke-opacity:1;stroke-dasharray:none;stroke-dashoffset:0"
         sodipodi:type="arc" />
      <path
         transform="translate(-4,4)"
         d="m 608,384.36218 a 4,4 0 1 1 -8,0 4,4 0 1 1 8,0 z"
         sodipodi:ry="4"
         sodipodi:rx="4"
         sodipodi:cy="384.36218"
         sodipodi:cx="604"
         id="path3998"
         style="fill:none;stroke:#000000;stroke-width:1;stroke-linecap:butt;stroke-linejoin:miter;stroke-miterlimit:4;stroke-opacity:1;stroke-dasharray:none;stroke-dashoffset:0"
         sodipodi:type="arc" />
      <path
         transform="translate(4,-4)"
         d="m 584,408.36218 a 4,4 0 1 1 -8,0 4,4 0 1 1 8,0 z"
         sodipodi:ry="4"
         sodipodi:rx="4"
         sodipodi:cy="408.36218"
         sodipodi:cx="580"
         id="path4000"
         style="fill:none;stroke:#000000;stroke-width:1;stroke-linecap:butt;stroke-linejoin:miter;stroke-miterlimit:4;stroke-opacity:1;stroke-dasharray:none;stroke-dashoffset:0"
         sodipodi:type="arc" />
      <path
         transform="translate(-4,-4)"
         d="m 608,408.33051 a 4.0099478,4.031683 0 1 1 -8.0199,0 4.0099478,4.031683 0 1 1 8.0199,0 z"
         sodipodi:ry="4.031683"
         sodipodi:rx="4.0099478"
         sodipodi:cy="408.33051"
         sodipodi:cx="603.99005"
         id="path4002"
         style="fill:none;stroke:#000000;stroke-width:1;stroke-linecap:butt;stroke-linejoin:miter;stroke-miterlimit:4;stroke-opacity:1;stroke-dasharray:none;stroke-dashoffset:0"
         sodipodi:type="arc" />
    </g>
  </g>
</svg>
