<?xml version="1.0" encoding="UTF-8" standalone="no"?>
<!-- Created with Inkscape (http://www.inkscape.org/) -->

<svg
   xmlns:dc="http://purl.org/dc/elements/1.1/"
   xmlns:cc="http://creativecommons.org/ns#"
   xmlns:rdf="http://www.w3.org/1999/02/22-rdf-syntax-ns#"
   xmlns:svg="http://www.w3.org/2000/svg"
   xmlns="http://www.w3.org/2000/svg"
   xmlns:sodipodi="http://sodipodi.sourceforge.net/DTD/sodipodi-0.dtd"
   xmlns:inkscape="http://www.inkscape.org/namespaces/inkscape"
   width="170"
   height="170"
   id="svg2"
   version="1.1"
   inkscape:version="0.47 r22583"
   sodipodi:docname="loading_composite.svg">
  <defs
     id="defs4">
    <inkscape:perspective
       sodipodi:type="inkscape:persp3d"
       inkscape:vp_x="0 : 526.18109 : 1"
       inkscape:vp_y="0 : 1000 : 0"
       inkscape:vp_z="744.09448 : 526.18109 : 1"
       inkscape:persp3d-origin="372.04724 : 350.78739 : 1"
       id="perspective10" />
  </defs>
  <sodipodi:namedview
     id="base"
     pagecolor="#ffffff"
     bordercolor="#666666"
     borderopacity="1.0"
     inkscape:pageopacity="0.0"
     inkscape:pageshadow="2"
     inkscape:zoom="1.4142136"
     inkscape:cx="76.42748"
     inkscape:cy="100.75703"
     inkscape:document-units="px"
     inkscape:current-layer="layer1"
     showgrid="false"
     inkscape:object-nodes="false"
     showguides="true"
     inkscape:guide-bbox="true"
     inkscape:window-width="1280"
     inkscape:window-height="742"
     inkscape:window-x="0"
     inkscape:window-y="0"
     inkscape:window-maximized="1" />
  <metadata
     id="metadata7">
    <rdf:RDF>
      <cc:Work
         rdf:about="">
        <dc:format>image/svg+xml</dc:format>
        <dc:type
           rdf:resource="http://purl.org/dc/dcmitype/StillImage" />
        <dc:title />
      </cc:Work>
    </rdf:RDF>
  </metadata>
  <g
     inkscape:label="Layer 1"
     inkscape:groupmode="layer"
     id="layer1"
     transform="translate(0,-882.36218)">
    <g
       id="g2816"
       transform="translate(-26.162952,77.781746)">
      <path
         id="path2818"
         d="m 62.099901,839.16309 c -5.407894,0.038 -11.046874,0.60938 -16.84375,1.8125 16.77716,3.26226 41.70575,8.8707 55.062499,22.25 -9.530339,4.88998 -16.062499,14.80184 -16.062499,26.25 0,11.97707 7.15254,22.28494 17.406249,26.90625 0.0211,0.01 0.0414,0.0218 0.0625,0.0312 15.34348,11.88425 43.69258,27.98066 78.53125,20.75 -16.27279,-3.16419 -40.20068,-8.5332 -53.8125,-21.0625 9.935,-4.74652 16.8125,-14.8801 16.8125,-26.625 0,-12.77344 -8.11029,-23.64716 -19.46875,-27.75 -0.0124,-0.004 -0.0189,-0.0268 -0.0312,-0.0312 -12.79555,-9.90289 -34.589669,-22.7217 -61.656249,-22.53125 z m 54.968749,21 c 0.40167,0.0448 0.7908,0.0955 1.1875,0.15625 0.48545,0.0744 0.96013,0.15229 1.4375,0.25 -0.48009,-0.0982 -0.94922,-0.17539 -1.4375,-0.25 -0.39498,-0.0603 -0.78753,-0.11173 -1.1875,-0.15625 z m -3.3125,20.75 c 4.73199,0 8.5625,3.83051 8.5625,8.5625 0,4.73199 -3.83051,8.5625 -8.5625,8.5625 -4.73199,0 -8.5625,-3.83051 -8.5625,-8.5625 0,-4.73199 3.83051,-8.5625 8.5625,-8.5625 z m -4.5,37.71875 c 0.48828,0.0746 0.9729,0.13714 1.46875,0.1875 -0.4919,-0.0505 -0.98449,-0.11304 -1.46875,-0.1875 z"
         style="fill:#000000;fill-opacity:1;stroke:none" />
      <path
         sodipodi:nodetypes="ccccc"
         d="m 130.04153,829.67017 c -7.67952,0 -13.79468,-6.54181 -13.79468,-13.79468 0,7.25287 -5.97295,13.79467 -13.65247,13.79467 7.67952,0 13.65247,6.54181 13.65247,13.79468 0,-7.25287 6.11516,-13.79467 13.79468,-13.79467 z"
         style="fill:#000000;fill-opacity:1;stroke:none"
         id="path3606" />
      <path
         sodipodi:nodetypes="ccccc"
         d="m 28.345766,931.84354 c 28.30602,0 34.29468,-5.29378 34.29468,-34.29468 0,29.0009 5.98866,34.29464 34.294685,34.29464 -28.306025,0 -34.294685,5.29378 -34.294685,34.29466 0,-29.00088 -5.98866,-34.29462 -34.29468,-34.29462 z"
         style="fill:#000000;fill-opacity:1;stroke:none"
         id="use3614" />
      <path
         id="path3628"
         style="fill:#000000;fill-opacity:1;stroke:none"
         d="m 190.54153,885.67017 c -7.67952,0 -13.79468,-6.54181 -13.79468,-13.79468 0,7.25287 -5.97295,13.79467 -13.65247,13.79467 7.67952,0 13.65247,6.54181 13.65247,13.79468 0,-7.25287 6.11516,-13.79467 13.79468,-13.79467 z"
         sodipodi:nodetypes="ccccc" />
    </g>
  </g>
</svg>
