<?xml version="1.0" encoding="UTF-8"?>
<!DOCTYPE svg PUBLIC "-//W3C//DTD SVG 20010904//EN" 
  "http://www.w3.org/TR/2001/REC-SVG-20010904/DTD/svg10.dtd">
<svg xmlns="http://www.w3.org/2000/svg"
     xmlns:sodipodi="http://sodipodi.sourceforge.net/DTD/sodipodi-0.dtd"
     width="384" height="32">
  <defs>
    <style type="text/css">
      path { fill:#ffffff; }
    </style>
  </defs>
  <rect style="fill:#111117" width="384" height="32" x="0" y="0" />
  <g id="minimize">
    <path d="m 6.5,10 19,0 -9.5,16 -9.5,-16 z" />
  </g>
  <g id="legend" transform="translate(32,0)">
    <path style="fill:#ffffff;stroke:#333348"
	  d="m 13,13 3,3 3,-3 -3,-9 -3,9 z" />
    <path style="fill:#ffffff;stroke:#333348"
	  d="m 19,13 -3,3 3,3 9,-3 -9,-3 z" />
    <path style="fill:#ffffff;stroke:#333348"
	  d="m 19,19 -3,-3 -3,3 3,9 3,-9 z" />
    <path style="fill:#ffffff;stroke:#333348"
	  d="m 13,19 3,-3 -3,-3 -9,3 9,3 z" />
  </g>
  <g id="beginning" transform="translate(64,0)">
    <path d="m 21,6.5 0,19 -9,-9.5 9,-9.5 z" />
    <path style="stroke:#ffffff;stroke-width:2" d="m 12,6.5 0,19" />
  </g>
  <g id="rewind" transform="translate(96,0)">
    <path d="m 25,6.5 0,19 -9,-9.5 9,-9.5 z" />
    <path d="m 16,6.5 0,19 -9,-9.5 9,-9.5 z" />
  </g>
  <g id="step_back" transform="translate(128,0)">
    <path d="m 18,6.5 0,19 -9,-9.5 9,-9.5 z" />
    <path style="stroke:#ffffff;stroke-width:2" d="m 22,6.5 0,19" />
  </g>
  <g id="pause" transform="translate(160,0)">
    <rect style="fill:#ffffff" width="5" height="19" x="19" y="6.5" />
    <rect style="fill:#ffffff" width="5" height="19" x="8" y="6.5" />
  </g>
  <g id="play" transform="translate(192,0)">
    <path d="m 8,6.5 0,19 16,-9.5 -16,-9.5 z" />
  </g>
  <g id="step_fwd" transform="translate(224,0)">
    <path d="m 14,6.5 0,19 9,-9.5 -9,-9.5 z" />
    <path style="stroke:#ffffff;stroke-width:2" d="m 10,6.5 0,19" />
  </g>
  <g id="fast_forward" transform="translate(256,0)">
    <path d="m 7,6.5 0,19 9,-9.5 -9,-9.5 z" />
    <path d="m 16,6.5 0,19 9,-9.5 -9,-9.5 z" />
  </g>
  <g id="end" transform="translate(288,0)">
    <path d="m 11,6.5 0,19 9,-9.5 -9,-9.5 z" />
    <path style="stroke:#ffffff;stroke-width:2" d="m 20,6.5 0,19" />
  </g>
  <g id="config" transform="translate(320,0)">
    <path d="m 27.843091,24.0586 -11.560296,-11.3337 c 3.22567,-7.331 -5.236284,-11.9544 -6.8912039,-8.9438 -1.3734673,2.4985 2.3459409,4.1054 2.3459409,4.1054 l -0.733106,3.079 -3.0790492,0.7331 c 0,0 -1.6068531,-3.7195 -4.1053987,-2.3459 -3.0105476,1.6549 1.6128352,10.1169 8.9439039,6.8911 l 11.267054,11.6269 c 3.241018,3.3445 7.13777,-0.5518 3.812155,-3.8121 z"
	  sodipodi:nodetypes="ccscccscss" />
  </g>
  <g id="help" transform="translate(352,0)">
    <circle style="fill:#ffffff" cx="16" cy="16" r="14" />
    <rect style="fill:#111117" width="8.1983232" height="14.029475"
	  x="11.900839" y="13.3945" />
    <circle style="fill:#111117" cx="15.9998114" cy="7.6750" r="4.0991616" />
  </g>
</svg>
