<?xml version="1.0" encoding="UTF-8" standalone="no"?>
<!-- Created with Inkscape (http://www.inkscape.org/) -->

<svg
   xmlns:dc="http://purl.org/dc/elements/1.1/"
   xmlns:cc="http://creativecommons.org/ns#"
   xmlns:rdf="http://www.w3.org/1999/02/22-rdf-syntax-ns#"
   xmlns:svg="http://www.w3.org/2000/svg"
   xmlns="http://www.w3.org/2000/svg"
   xmlns:sodipodi="http://sodipodi.sourceforge.net/DTD/sodipodi-0.dtd"
   xmlns:inkscape="http://www.inkscape.org/namespaces/inkscape"
   width="32"
   height="32"
   id="svg2"
   version="1.1"
   inkscape:version="0.47 r22583"
   sodipodi:docname="help.svg">
  <defs
     id="defs4" />
  <sodipodi:namedview
     id="base"
     pagecolor="#111117"
     bordercolor="#666666"
     borderopacity="1.0"
     inkscape:pageopacity="1"
     inkscape:pageshadow="2"
     inkscape:zoom="1"
     inkscape:cx="44.706762"
     inkscape:cy="6.6119331"
     inkscape:document-units="px"
     inkscape:current-layer="layer1"
     showgrid="false"
     inkscape:object-nodes="true"
     inkscape:snap-smooth-nodes="false"
     inkscape:window-width="1280"
     inkscape:window-height="742"
     inkscape:window-x="0"
     inkscape:window-y="0"
     inkscape:window-maximized="1" />
  <metadata
     id="metadata7">
    <rdf:RDF>
      <cc:Work
         rdf:about="">
        <dc:format>image/svg+xml</dc:format>
        <dc:type
           rdf:resource="http://purl.org/dc/dcmitype/StillImage" />
        <dc:title />
      </cc:Work>
    </rdf:RDF>
  </metadata>
  <g
     inkscape:label="Layer 1"
     inkscape:groupmode="layer"
     id="layer1"
     transform="translate(0,-1020.3622)">
    <path
       sodipodi:type="arc"
       style="fill:#ffffff;fill-opacity:1;stroke:none"
       id="path2902"
       sodipodi:cx="16"
       sodipodi:cy="16"
       sodipodi:rx="14"
       sodipodi:ry="14"
       d="M 30,16 C 30,23.731986 23.731986,30 16,30 8.2680135,30 2,23.731986 2,16 2,8.2680135 8.2680135,2 16,2 23.731986,2 30,8.2680135 30,16 z"
       transform="translate(0,1020.3622)" />
    <rect
       style="fill:#111117;fill-opacity:1;stroke:none"
       id="rect3596"
       width="8.1983232"
       height="14.029475"
       x="11.900839"
       y="1033.7567" />
    <path
       sodipodi:type="arc"
       style="fill:#111117;fill-opacity:1;stroke:none"
       id="path3598"
       sodipodi:cx="7.8125"
       sodipodi:cy="12.8125"
       sodipodi:rx="3.5"
       sodipodi:ry="3.5"
       d="m 11.3125,12.8125 c 0,1.932997 -1.5670034,3.5 -3.5,3.5 -1.9329966,0 -3.5,-1.567003 -3.5,-3.5 0,-1.932997 1.5670034,-3.5 3.5,-3.5 1.9329966,0 3.5,1.567003 3.5,3.5 z"
       transform="matrix(1.1711353,0,0,1.1711353,6.8505054,1013.032)" />
  </g>
</svg>
