<?xml version="1.0" encoding="UTF-8"?>
<svg xmlns="http://www.w3.org/2000/svg" width="32" height="32">
  <rect style="fill:#111117" width="32" height="32" x="0" y="0" />
  <!-- Too much visual complexity:
  <path style="fill:#ffffff;stroke:#333348"
     d="M 16,11.757359 16,16 20.242641,16 24.485281,7.5147186 16,11.757359 z" />
  <path style="fill:#ffffff;stroke:#333348"
     d="M 20.242641,16 16,16 l 0,4.242641 8.485281,4.24264 L 20.242641,16 z" />
  <path style="fill:#ffffff;stroke:#333348"
     d="M 16,20.242641 16,16 11.757359,16 7.5147186,24.485281 16,20.242641 z" />
  <path style="fill:#ffffff;stroke:#333348"
     d="M 11.757359,16 16,16 16,11.757359 7.5147186,7.5147186 11.757359,16 z" />
  -->
  <path style="fill:#ffffff;stroke:#333348"
     d="m 13,13 3,3 3,-3 -3,-9 -3,9 z" />
  <path style="fill:#ffffff;stroke:#333348"
	d="m 19,13 -3,3 3,3 9,-3 -9,-3 z" />
  <path style="fill:#ffffff;stroke:#333348"
     d="m 19,19 -3,-3 -3,3 3,9 3,-9 z" />
  <path style="fill:#ffffff;stroke:#333348"
     d="m 13,19 3,-3 -3,-3 -9,3 9,3 z" />
</svg>
