<?xml version="1.0" encoding="UTF-8"?>
<svg xmlns="http://www.w3.org/2000/svg" width="170" height="170"
     style="background-color: #333348">
<!-- NOTE: The background should be transparent, but for the browsers
     that can't handle this we set background-color manually.  -->
  <path style="fill:#000000" d="m 164.37858,81.08992 c -7.67952,0 -13.79468,-6.54181 -13.79468,-13.79468 0,7.25287 -5.97295,13.79467 -13.65247,13.79467 7.67952,0 13.65247,6.54181 13.65247,13.79468 0,-7.25287 6.11516,-13.79467 13.79468,-13.79467 z M 2.182814,127.2633 c 28.30602,0 34.29468,-5.2938 34.29468,-34.29469 0,29.00089 5.98866,34.29459 34.294685,34.29459 -28.306025,0 -34.294685,5.2938 -34.294685,34.2947 0,-29.0009 -5.98866,-34.2946 -34.29468,-34.2946 z M 103.87858,25.08992 c -7.679522,0 -13.794682,-6.54181 -13.794682,-13.79468 0,7.25287 -5.97295,13.79467 -13.65247,13.79467 7.67952,0 13.65247,6.54181 13.65247,13.79468 0,-7.25287 6.11516,-13.79467 13.794682,-13.79467 z m -67.941631,9.49292 c -5.407894,0.038 -11.046874,0.60938 -16.84375,1.8125 16.77716,3.26226 41.70575,8.8707 55.062499,22.25 -9.530339,4.88998 -16.062499,14.80184 -16.062499,26.25 0,11.97707 7.15254,22.28494 17.406249,26.90625 0.0211,0.01 0.0414,0.0218 0.0625,0.0312 15.34348,11.88421 43.692582,27.98061 78.531252,20.75001 -16.27279,-3.1642 -40.20068,-8.5332 -53.8125,-21.06251 9.935,-4.74652 16.8125,-14.8801 16.8125,-26.625 0,-12.77344 -8.11029,-23.64716 -19.468752,-27.75 -0.0124,-0.004 -0.0189,-0.0268 -0.0312,-0.0312 C 84.797698,47.2112 63.003579,34.39239 35.936999,34.58284 z m 54.968749,21 c 0.40167,0.0448 0.7908,0.0955 1.1875,0.15625 0.48545,0.0744 0.96013,0.15229 1.4375,0.25 -0.48009,-0.0982 -0.94922,-0.17539 -1.4375,-0.25 -0.39498,-0.0603 -0.78753,-0.11173 -1.1875,-0.15625 z m -3.3125,20.75 c 4.73199,0 8.5625,3.83051 8.5625,8.5625 0,4.73199 -3.83051,8.5625 -8.5625,8.5625 -4.73199,0 -8.5625,-3.83051 -8.5625,-8.5625 0,-4.73199 3.83051,-8.5625 8.5625,-8.5625 z m -4.5,37.71875 c 0.48828,0.0746 0.9729,0.13714 1.46875,0.1875 -0.4919,-0.0505 -0.98449,-0.11304 -1.46875,-0.1875 z" />
</svg>
