<?xml version="1.0" encoding="UTF-8" standalone="no"?>
<!-- Created with Inkscape (http://www.inkscape.org/) -->

<svg
   xmlns:dc="http://purl.org/dc/elements/1.1/"
   xmlns:cc="http://creativecommons.org/ns#"
   xmlns:rdf="http://www.w3.org/1999/02/22-rdf-syntax-ns#"
   xmlns:svg="http://www.w3.org/2000/svg"
   xmlns="http://www.w3.org/2000/svg"
   xmlns:sodipodi="http://sodipodi.sourceforge.net/DTD/sodipodi-0.dtd"
   xmlns:inkscape="http://www.inkscape.org/namespaces/inkscape"
   width="202"
   height="142"
   id="svg2"
   version="1.1"
   inkscape:version="0.47 r22583"
   sodipodi:docname="earth_rotate.svg">
  <defs
     id="defs4" />
  <sodipodi:namedview
     id="base"
     pagecolor="#ffffff"
     bordercolor="#666666"
     borderopacity="1.0"
     inkscape:pageopacity="0"
     inkscape:pageshadow="2"
     inkscape:zoom="2"
     inkscape:cx="109.54865"
     inkscape:cy="74.412616"
     inkscape:document-units="px"
     inkscape:current-layer="layer1"
     showgrid="false"
     objecttolerance="20"
     showguides="true"
     inkscape:guide-bbox="true"
     inkscape:window-width="1268"
     inkscape:window-height="744"
     inkscape:window-x="0"
     inkscape:window-y="24"
     inkscape:window-maximized="0"
     inkscape:snap-global="true"
     inkscape:object-paths="false"
     inkscape:object-nodes="false"
     inkscape:snap-intersection-paths="false"
     inkscape:snap-bbox="false" />
  <metadata
     id="metadata7">
    <rdf:RDF>
      <cc:Work
         rdf:about="">
        <dc:format>image/svg+xml</dc:format>
        <dc:type
           rdf:resource="http://purl.org/dc/dcmitype/StillImage" />
      </cc:Work>
    </rdf:RDF>
  </metadata>
  <g
     inkscape:label="Layer 1"
     inkscape:groupmode="layer"
     id="layer1"
     transform="translate(0,-910.36218)">
    <rect
       style="fill:#ffffff;fill-opacity:1;stroke:none"
       id="rect3012"
       width="202"
       height="142"
       x="0"
       y="910.36218" />
    <path
       sodipodi:open="true"
       sodipodi:end="6.2831853"
       sodipodi:start="3.1415927"
       transform="matrix(1.4208423,0,0,1.4207011,-61.686449,892.56837)"
       d="m 65.75,62.5 c 10e-7,-5.522848 21.826121,-10 48.75,-10 26.92388,0 48.75,4.477153 48.75,10"
       sodipodi:ry="10"
       sodipodi:rx="48.75"
       sodipodi:cy="62.5"
       sodipodi:cx="114.5"
       id="path3620"
       style="fill:none;stroke:#000000;stroke-width:1.40768564;stroke-linecap:round;stroke-linejoin:round;stroke-miterlimit:4;stroke-opacity:1;stroke-dasharray:none"
       sodipodi:type="arc" />
    <path
       style="fill:none;stroke:#000000;stroke-width:3.99999976;stroke-linecap:butt;stroke-linejoin:round;stroke-miterlimit:4;stroke-opacity:1;stroke-dasharray:none"
       d="m 101,912.10298 0,138.51842"
       id="path2838"
       sodipodi:nodetypes="cc" />
    <path
       style="fill:none;stroke:#000000;stroke-width:0.99999994px;stroke-linecap:butt;stroke-linejoin:miter;stroke-opacity:1"
       d="m 58.920368,990.75528 c -18.586715,-2.00917 -30.140617,2.29939 -30.140617,9.54362"
       id="path3644"
       sodipodi:nodetypes="cs" />
    <path
       sodipodi:type="arc"
       style="fill:#000000;fill-opacity:1;stroke:none"
       id="path3659"
       sodipodi:cx="66.78125"
       sodipodi:cy="34.171875"
       sodipodi:rx="1.1660271"
       sodipodi:ry="1.1660271"
       d="m 67.947277,34.171875 c 0,0.643979 -0.522048,1.166027 -1.166027,1.166027 -0.643979,0 -1.166027,-0.522048 -1.166027,-1.166027 0,-0.643979 0.522048,-1.166027 1.166027,-1.166027 0.643979,0 1.166027,0.522048 1.166027,1.166027 z"
       transform="matrix(1.4208423,0,0,1.4207011,-49.609289,895.74514)" />
    <path
       sodipodi:type="arc"
       style="fill:#ffffff;fill-opacity:0.50196078;stroke:#000000;stroke-width:1.40768564;stroke-linecap:round;stroke-linejoin:round;stroke-miterlimit:4;stroke-opacity:1;stroke-dasharray:none"
       id="path2823"
       sodipodi:cx="156"
       sodipodi:cy="77.5"
       sodipodi:rx="48.75"
       sodipodi:ry="48.75"
       d="m 204.75,77.5 c 0,26.92388 -21.82612,48.75 -48.75,48.75 -26.92388,0 -48.75,-21.82612 -48.75,-48.75 0,-26.923882 21.82612,-48.75 48.75,-48.75 26.92388,0 48.75,21.826118 48.75,48.75 z"
       transform="matrix(1.4208423,0,0,1.4207011,-120.65141,871.25785)" />
    <path
       sodipodi:type="arc"
       style="fill:none;stroke:#000000;stroke-width:1.40768564;stroke-linecap:round;stroke-linejoin:round;stroke-miterlimit:4;stroke-opacity:1;stroke-dasharray:none"
       id="path3618"
       sodipodi:cx="114.5"
       sodipodi:cy="62.5"
       sodipodi:rx="48.75"
       sodipodi:ry="10"
       d="m 163.25,62.5 c 0,5.522847 -21.82612,10 -48.75,10 -26.923882,0 -48.75,-4.477153 -48.75,-10 0,0 0,0 0,0"
       transform="matrix(1.4208423,0,0,1.4207011,-61.686449,892.56837)"
       sodipodi:start="0"
       sodipodi:end="3.1415927"
       sodipodi:open="true" />
    <path
       id="path3626"
       style="fill:none;stroke:#000000;stroke-width:0.99999994px;stroke-linecap:butt;stroke-linejoin:miter;stroke-opacity:1"
       d="m 54.901619,1000.2989 9.544528,11.0504 -10.549216,8.0367"
       sodipodi:nodetypes="ccc" />
    <path
       sodipodi:nodetypes="cc"
       id="path3637"
       d="m 28.779751,1000.2989 c 0,6.0275 13.563276,10.5481 35.666396,11.0504"
       style="fill:none;stroke:#000000;stroke-width:0.99999994px;stroke-linecap:butt;stroke-linejoin:miter;stroke-opacity:1" />
    <path
       style="fill:none;stroke:#000000;stroke-width:0.99999994px;stroke-linecap:butt;stroke-linejoin:miter;stroke-opacity:1"
       d="m 27.840664,943.94926 c -9.189319,11.61369 -11.787225,31.76639 -4.901548,45.62254"
       id="path3661"
       sodipodi:nodetypes="cc" />
    <path
       style="fill:none;stroke:#000000;stroke-width:0.99999994px;stroke-linecap:butt;stroke-linejoin:miter;stroke-opacity:1"
       d="m 12.389901,984.0466 10.549215,5.5252 6.530469,-8.53899"
       id="path3663" />
    <path
       transform="matrix(1.4208423,0,0,1.4207011,-25.170455,963.02179)"
       d="m 67.947277,34.171875 c 0,0.643979 -0.522048,1.166027 -1.166027,1.166027 -0.643979,0 -1.166027,-0.522048 -1.166027,-1.166027 0,-0.643979 0.522048,-1.166027 1.166027,-1.166027 0.643979,0 1.166027,0.522048 1.166027,1.166027 z"
       sodipodi:ry="1.1660271"
       sodipodi:rx="1.1660271"
       sodipodi:cy="34.171875"
       sodipodi:cx="66.78125"
       id="path3665"
       style="fill:#000000;fill-opacity:1;stroke:none"
       sodipodi:type="arc" />
  </g>
</svg>
