<?xml version="1.0" encoding="UTF-8" standalone="no"?>
<!-- Created with Inkscape (http://www.inkscape.org/) -->

<svg
   xmlns:dc="http://purl.org/dc/elements/1.1/"
   xmlns:cc="http://creativecommons.org/ns#"
   xmlns:rdf="http://www.w3.org/1999/02/22-rdf-syntax-ns#"
   xmlns:svg="http://www.w3.org/2000/svg"
   xmlns="http://www.w3.org/2000/svg"
   xmlns:sodipodi="http://sodipodi.sourceforge.net/DTD/sodipodi-0.dtd"
   xmlns:inkscape="http://www.inkscape.org/namespaces/inkscape"
   width="226"
   height="226"
   id="svg2"
   version="1.1"
   inkscape:version="0.47 r22583"
   sodipodi:docname="grat1.svg">
  <defs
     id="defs4" />
  <sodipodi:namedview
     id="base"
     pagecolor="#ffffff"
     bordercolor="#666666"
     borderopacity="1.0"
     inkscape:pageopacity="0.0"
     inkscape:pageshadow="2"
     inkscape:zoom="1"
     inkscape:cx="107.3308"
     inkscape:cy="111.8149"
     inkscape:document-units="px"
     inkscape:current-layer="layer1"
     showgrid="false"
     inkscape:window-width="613"
     inkscape:window-height="499"
     inkscape:window-x="0"
     inkscape:window-y="206"
     inkscape:window-maximized="0"
     inkscape:object-paths="true" />
  <metadata
     id="metadata7">
    <rdf:RDF>
      <cc:Work
         rdf:about="">
        <dc:format>image/svg+xml</dc:format>
        <dc:type
           rdf:resource="http://purl.org/dc/dcmitype/StillImage" />
        <dc:title />
      </cc:Work>
    </rdf:RDF>
  </metadata>
  <g
     inkscape:label="Layer 1"
     inkscape:groupmode="layer"
     id="layer1"
     transform="translate(0,-826.36218)">
    <rect
       style="fill:#ffffff;fill-opacity:1;stroke:none"
       id="rect5166"
       width="226"
       height="226"
       x="0"
       y="0"
       transform="translate(0,826.36218)" />
    <path
       sodipodi:type="arc"
       style="fill:none;stroke:#000000;stroke-width:2;stroke-linecap:round;stroke-linejoin:round;stroke-miterlimit:4;stroke-opacity:1;stroke-dasharray:none;stroke-dashoffset:0"
       id="path2959"
       sodipodi:cx="111"
       sodipodi:cy="115"
       sodipodi:rx="100"
       sodipodi:ry="100"
       d="M 211,115 C 211,170.22847 166.22847,215 111,215 55.771525,215 11,170.22847 11,115 11,59.771525 55.771525,15 111,15 c 55.22847,0 100,44.771525 100,100 z"
       transform="translate(2,824.36218)" />
    <path
       transform="translate(2,824.36218)"
       d="m 202,115 c 0,55.22847 -40.74209,100 -91,100 C 60.742088,215 20,170.22847 20,115 20,59.771525 60.742088,15 111,15 c 50.25791,0 91,44.771525 91,100 z"
       sodipodi:ry="100"
       sodipodi:rx="91"
       sodipodi:cy="115"
       sodipodi:cx="111"
       id="path5099"
       style="fill:none;stroke:#000000;stroke-width:2;stroke-linecap:round;stroke-linejoin:round;stroke-miterlimit:4;stroke-opacity:1;stroke-dasharray:none;stroke-dashoffset:0"
       sodipodi:type="arc" />
    <path
       sodipodi:type="arc"
       style="fill:none;stroke:#000000;stroke-width:2;stroke-linecap:round;stroke-linejoin:round;stroke-miterlimit:4;stroke-opacity:1;stroke-dasharray:none;stroke-dashoffset:0"
       id="path5101"
       sodipodi:cx="111"
       sodipodi:cy="115"
       sodipodi:rx="70"
       sodipodi:ry="100"
       d="m 181,115 c 0,55.22847 -31.34007,100 -70,100 C 72.340068,215 41,170.22847 41,115 41,59.771525 72.340068,15 111,15 c 38.65993,0 70,44.771525 70,100 z"
       transform="translate(2,824.36218)" />
    <path
       transform="translate(2,824.36218)"
       d="m 149,115 c 0,55.22847 -17.01318,100 -38,100 C 90.01318,215 73,170.22847 73,115 73,59.771525 90.01318,15 111,15 c 20.98682,0 38,44.771525 38,100 z"
       sodipodi:ry="100"
       sodipodi:rx="38"
       sodipodi:cy="115"
       sodipodi:cx="111"
       id="path5103"
       style="fill:none;stroke:#000000;stroke-width:2;stroke-linecap:round;stroke-linejoin:round;stroke-miterlimit:4;stroke-opacity:1;stroke-dasharray:none;stroke-dashoffset:0"
       sodipodi:type="arc" />
    <path
       style="fill:none;stroke:#000000;stroke-width:2;stroke-linecap:round;stroke-linejoin:round;stroke-opacity:1;stroke-miterlimit:4;stroke-dasharray:none"
       d="m 113,13 0,200"
       id="path5109"
       transform="translate(0,826.36218)" />
    <path
       style="fill:none;stroke:#000000;stroke-width:2;stroke-linecap:round;stroke-linejoin:round;stroke-opacity:1;stroke-miterlimit:4;stroke-dasharray:none"
       d="m 71.053552,22.196305 83.892898,0"
       id="path5111"
       transform="translate(0,826.36218)"
       sodipodi:nodetypes="cc" />
    <path
       style="fill:none;stroke:#000000;stroke-width:2;stroke-linecap:round;stroke-linejoin:round;stroke-opacity:1;stroke-miterlimit:4;stroke-dasharray:none"
       d="m 41.307261,43.285128 143.385479,0"
       id="path5113"
       transform="translate(0,826.36218)" />
    <path
       style="fill:none;stroke:#000000;stroke-width:2;stroke-linecap:round;stroke-linejoin:round;stroke-opacity:1;stroke-miterlimit:4;stroke-dasharray:none"
       d="m 20.405009,75.165659 185.189981,0"
       id="path5115"
       transform="translate(0,826.36218)" />
    <path
       style="fill:none;stroke:#000000;stroke-width:2;stroke-linecap:round;stroke-linejoin:round;stroke-opacity:1;stroke-miterlimit:4;stroke-dasharray:none"
       d="m 13.001212,112.50244 199.997578,0"
       id="path5117"
       transform="translate(0,826.36218)" />
    <path
       style="fill:none;stroke:#000000;stroke-width:2;stroke-linecap:round;stroke-linejoin:round;stroke-opacity:1;stroke-miterlimit:4;stroke-dasharray:none"
       d="m 20.334155,150.66065 185.331695,0"
       id="path5119"
       transform="translate(0,826.36218)" />
    <path
       style="fill:none;stroke:#000000;stroke-width:2;stroke-linecap:round;stroke-linejoin:round;stroke-opacity:1;stroke-miterlimit:4;stroke-dasharray:none"
       d="m 41.307261,182.71487 143.385479,0"
       id="path5121"
       transform="translate(0,826.36218)" />
    <path
       style="fill:none;stroke:#000000;stroke-width:2;stroke-linecap:round;stroke-linejoin:round;stroke-opacity:1;stroke-miterlimit:4;stroke-dasharray:none"
       d="m 72.077578,204.27052 81.844842,0"
       id="path5125"
       transform="translate(0,826.36218)" />
  </g>
</svg>
