<?xml version="1.0" encoding="UTF-8" standalone="no"?>
<!-- Created with Inkscape (http://www.inkscape.org/) -->

<svg
   xmlns:dc="http://purl.org/dc/elements/1.1/"
   xmlns:cc="http://creativecommons.org/ns#"
   xmlns:rdf="http://www.w3.org/1999/02/22-rdf-syntax-ns#"
   xmlns:svg="http://www.w3.org/2000/svg"
   xmlns="http://www.w3.org/2000/svg"
   xmlns:sodipodi="http://sodipodi.sourceforge.net/DTD/sodipodi-0.dtd"
   xmlns:inkscape="http://www.inkscape.org/namespaces/inkscape"
   width="226"
   height="226"
   id="svg2"
   version="1.1"
   inkscape:version="0.47 r22583"
   sodipodi:docname="grat4.svg">
  <defs
     id="defs4" />
  <sodipodi:namedview
     id="base"
     pagecolor="#ffffff"
     bordercolor="#666666"
     borderopacity="1.0"
     inkscape:pageopacity="0.0"
     inkscape:pageshadow="2"
     inkscape:zoom="1"
     inkscape:cx="115.61116"
     inkscape:cy="122.95101"
     inkscape:document-units="px"
     inkscape:current-layer="layer1"
     showgrid="false"
     inkscape:window-width="613"
     inkscape:window-height="499"
     inkscape:window-x="39"
     inkscape:window-y="224"
     inkscape:window-maximized="0"
     inkscape:object-paths="false"
     inkscape:snap-smooth-nodes="false"
     inkscape:object-nodes="true" />
  <metadata
     id="metadata7">
    <rdf:RDF>
      <cc:Work
         rdf:about="">
        <dc:format>image/svg+xml</dc:format>
        <dc:type
           rdf:resource="http://purl.org/dc/dcmitype/StillImage" />
        <dc:title />
      </cc:Work>
    </rdf:RDF>
  </metadata>
  <g
     inkscape:label="Layer 1"
     inkscape:groupmode="layer"
     id="layer1"
     transform="translate(0,-826.36218)">
    <rect
       style="fill:#ffffff;fill-opacity:1;stroke:none;stroke-width:0.75;stroke-miterlimit:4;stroke-dasharray:none"
       id="rect5166"
       width="226"
       height="226"
       x="0"
       y="0"
       transform="translate(0,826.36218)" />
    <path
       sodipodi:type="arc"
       style="fill:none;stroke:#000000;stroke-width:2;stroke-linecap:round;stroke-linejoin:round;stroke-miterlimit:4;stroke-opacity:1;stroke-dasharray:none;stroke-dashoffset:0"
       id="path2959"
       sodipodi:cx="111"
       sodipodi:cy="115"
       sodipodi:rx="100"
       sodipodi:ry="100"
       d="M 211,115 C 211,170.22847 166.22847,215 111,215 55.771525,215 11,170.22847 11,115 11,59.771525 55.771525,15 111,15 c 55.22847,0 100,44.771525 100,100 z"
       transform="translate(2,824.36218)" />
    <path
       sodipodi:type="arc"
       style="fill:none;stroke:#000000;stroke-width:0.75;stroke-linecap:round;stroke-linejoin:round;stroke-miterlimit:4;stroke-opacity:1;stroke-dasharray:none;stroke-dashoffset:0"
       id="path2862"
       sodipodi:cx="113"
       sodipodi:cy="113"
       sodipodi:rx="100"
       sodipodi:ry="7.25"
       d="m 213,113 c 0,4.00406 -44.77153,7.25 -100,7.25 -55.228475,0 -100,-3.24594 -100,-7.25 0,-4.00406 44.771525,-7.25 100,-7.25 55.22847,0 100,3.24594 100,7.25 z"
       transform="translate(0,826.36218)" />
    <path
       transform="matrix(0.92387953,-0.38268343,0.38268343,0.92387953,-34.641615,878.20702)"
       d="m 213,113 c 0,3.73894 -44.77153,6.76995 -100,6.76995 -55.228475,0 -100,-3.03101 -100,-6.76995 0,-3.73894 44.771525,-6.76995 100,-6.76995 55.22847,0 100,3.03101 100,6.76995 z"
       sodipodi:ry="6.7699461"
       sodipodi:rx="100"
       sodipodi:cy="113"
       sodipodi:cx="113"
       id="path2864"
       style="fill:none;stroke:#000000;stroke-width:0.75;stroke-linecap:round;stroke-linejoin:round;stroke-miterlimit:4;stroke-opacity:1;stroke-dasharray:none;stroke-dashoffset:0"
       sodipodi:type="arc" />
    <path
       sodipodi:type="arc"
       style="fill:none;stroke:#000000;stroke-width:0.75;stroke-linecap:round;stroke-linejoin:round;stroke-miterlimit:4;stroke-opacity:1;stroke-dasharray:none;stroke-dashoffset:0"
       id="path2866"
       sodipodi:cx="113"
       sodipodi:cy="113"
       sodipodi:rx="100"
       sodipodi:ry="4.9077086"
       d="m 213,113 c 0,2.71045 -44.77153,4.90771 -100,4.90771 -55.228475,0 -100,-2.19726 -100,-4.90771 0,-2.71045 44.771525,-4.90771 100,-4.90771 55.22847,0 100,2.19726 100,4.90771 z"
       transform="matrix(0.70710678,-0.70710678,0.70710678,0.70710678,-46.806133,939.36218)" />
    <path
       transform="matrix(0.38268343,-0.92387953,0.92387953,0.38268343,-34.641616,1000.5173)"
       d="m 213,113 c 0,1.63512 -44.77153,2.96064 -100,2.96064 -55.228475,0 -100,-1.32552 -100,-2.96064 0,-1.63512 44.771525,-2.96064 100,-2.96064 55.22847,0 100,1.32552 100,2.96064 z"
       sodipodi:ry="2.9606426"
       sodipodi:rx="100"
       sodipodi:cy="113"
       sodipodi:cx="113"
       id="path2868"
       style="fill:none;stroke:#000000;stroke-width:0.75;stroke-linecap:round;stroke-linejoin:round;stroke-miterlimit:4;stroke-opacity:1;stroke-dasharray:none;stroke-dashoffset:0"
       sodipodi:type="arc" />
    <path
       sodipodi:type="arc"
       style="fill:none;stroke:#000000;stroke-width:0.75;stroke-linecap:round;stroke-linejoin:round;stroke-miterlimit:4;stroke-opacity:1;stroke-dasharray:none;stroke-dashoffset:0"
       id="path2878"
       sodipodi:cx="113"
       sodipodi:cy="113"
       sodipodi:rx="100"
       sodipodi:ry="6.7699461"
       d="m 213,113 c 0,3.73894 -44.77153,6.76995 -100,6.76995 -55.228475,0 -100,-3.03101 -100,-6.76995 0,-3.73894 44.771525,-6.76995 100,-6.76995 55.22847,0 100,3.03101 100,6.76995 z"
       transform="matrix(-0.92387953,-0.38268343,-0.38268343,0.92387953,260.64161,878.20702)" />
    <path
       transform="matrix(-0.70710678,-0.70710678,-0.70710678,0.70710678,272.80613,939.36218)"
       d="m 213,113 c 0,2.71045 -44.77153,4.90771 -100,4.90771 -55.228475,0 -100,-2.19726 -100,-4.90771 0,-2.71045 44.771525,-4.90771 100,-4.90771 55.22847,0 100,2.19726 100,4.90771 z"
       sodipodi:ry="4.9077086"
       sodipodi:rx="100"
       sodipodi:cy="113"
       sodipodi:cx="113"
       id="path2880"
       style="fill:none;stroke:#000000;stroke-width:0.75;stroke-linecap:round;stroke-linejoin:round;stroke-miterlimit:4;stroke-opacity:1;stroke-dasharray:none;stroke-dashoffset:0"
       sodipodi:type="arc" />
    <path
       sodipodi:type="arc"
       style="fill:none;stroke:#000000;stroke-width:0.75;stroke-linecap:round;stroke-linejoin:round;stroke-miterlimit:4;stroke-opacity:1;stroke-dasharray:none;stroke-dashoffset:0"
       id="path2882"
       sodipodi:cx="113"
       sodipodi:cy="113"
       sodipodi:rx="100"
       sodipodi:ry="2.9606426"
       d="m 213,113 c 0,1.63512 -44.77153,2.96064 -100,2.96064 -55.228475,0 -100,-1.32552 -100,-2.96064 0,-1.63512 44.771525,-2.96064 100,-2.96064 55.22847,0 100,1.32552 100,2.96064 z"
       transform="matrix(-0.38268343,-0.92387953,-0.92387953,0.38268343,260.64161,1000.5173)" />
    <path
       style="fill:none;stroke:#000000;stroke-width:0.75;stroke-linecap:round;stroke-linejoin:round;stroke-opacity:1;stroke-miterlimit:4;stroke-dasharray:none"
       d="m 113,13 0,200"
       id="path2886"
       transform="translate(0,826.36218)" />
    <path
       style="fill:none;stroke:#000000;stroke-width:2;stroke-linecap:round;stroke-linejoin:round;stroke-opacity:0.50196081;stroke-miterlimit:4;stroke-dasharray:none"
       d="M 205.38795,74.731656 20.612046,151.26834"
       id="path2823"
       transform="translate(0,826.36218)" />
    <path
       style="fill:none;stroke:#000000;stroke-width:2;stroke-linecap:round;stroke-linejoin:round;stroke-opacity:0.50196081000000004;stroke-miterlimit:4;stroke-dasharray:16,16;stroke-dashoffset:0"
       d="m 205.38795,74.731656 -184.775904,-8e-6"
       id="path3597"
       transform="translate(0,826.36218)"
       sodipodi:nodetypes="cc" />
    <path
       style="fill:none;stroke:#000080;stroke-width:4;stroke-linecap:round;stroke-linejoin:round;stroke-opacity:0.75294119000000004;stroke-miterlimit:4;stroke-dasharray:none"
       d="m 20.612046,151.26834 0,-76.536692"
       id="path3599"
       transform="translate(0,826.36218)"
       sodipodi:nodetypes="cc" />
    <path
       id="path3601"
       d="M 205.38795,824.55714 20.612046,901.09383"
       style="fill:none;stroke:#000000;stroke-width:2;stroke-linecap:round;stroke-linejoin:round;stroke-miterlimit:4;stroke-opacity:0.50196078000000000;stroke-dasharray:16,16;stroke-dashoffset:0" />
    <path
       sodipodi:nodetypes="cc"
       id="path3603"
       d="m 205.38795,901.09383 0,-76.53669"
       style="fill:none;stroke:#000000;stroke-width:2;stroke-linecap:round;stroke-linejoin:round;stroke-miterlimit:4;stroke-opacity:0.50196081;stroke-dasharray:16, 16;stroke-dashoffset:0" />
  </g>
</svg>
