<?xml version="1.0" encoding="UTF-8" standalone="no"?>
<!-- Created with Inkscape (http://www.inkscape.org/) -->

<svg
   xmlns:dc="http://purl.org/dc/elements/1.1/"
   xmlns:cc="http://creativecommons.org/ns#"
   xmlns:rdf="http://www.w3.org/1999/02/22-rdf-syntax-ns#"
   xmlns:svg="http://www.w3.org/2000/svg"
   xmlns="http://www.w3.org/2000/svg"
   xmlns:sodipodi="http://sodipodi.sourceforge.net/DTD/sodipodi-0.dtd"
   xmlns:inkscape="http://www.inkscape.org/namespaces/inkscape"
   width="226"
   height="226"
   id="svg2"
   version="1.1"
   inkscape:version="0.47 r22583"
   sodipodi:docname="grat2.svg">
  <defs
     id="defs4" />
  <sodipodi:namedview
     id="base"
     pagecolor="#ffffff"
     bordercolor="#666666"
     borderopacity="1.0"
     inkscape:pageopacity="0.0"
     inkscape:pageshadow="2"
     inkscape:zoom="1"
     inkscape:cx="117.26506"
     inkscape:cy="116.90697"
     inkscape:document-units="px"
     inkscape:current-layer="layer1"
     showgrid="false"
     inkscape:window-width="671"
     inkscape:window-height="511"
     inkscape:window-x="46"
     inkscape:window-y="58"
     inkscape:window-maximized="0"
     inkscape:object-paths="true" />
  <metadata
     id="metadata7">
    <rdf:RDF>
      <cc:Work
         rdf:about="">
        <dc:format>image/svg+xml</dc:format>
        <dc:type
           rdf:resource="http://purl.org/dc/dcmitype/StillImage" />
        <dc:title />
      </cc:Work>
    </rdf:RDF>
  </metadata>
  <g
     inkscape:label="Layer 1"
     inkscape:groupmode="layer"
     id="layer1"
     transform="translate(0,-826.36218)">
    <rect
       style="fill:#ffffff;fill-opacity:1;stroke:none"
       id="rect5245"
       width="226"
       height="226"
       x="0"
       y="0"
       transform="translate(0,826.36218)" />
    <path
       sodipodi:type="arc"
       style="fill:none;stroke:#000000;stroke-width:2;stroke-linecap:round;stroke-linejoin:round;stroke-miterlimit:4;stroke-opacity:1;stroke-dasharray:none;stroke-dashoffset:0"
       id="path2959"
       sodipodi:cx="111"
       sodipodi:cy="115"
       sodipodi:rx="100"
       sodipodi:ry="100"
       d="M 211,115 C 211,170.22847 166.22847,215 111,215 55.771525,215 11,170.22847 11,115 11,59.771525 55.771525,15 111,15 c 55.22847,0 100,44.771525 100,100 z"
       transform="translate(2,824.36218)" />
    <path
       transform="translate(2,824.36218)"
       d="m 204.80822,115 c 0,51.80885 -41.99937,93.80822 -93.80822,93.80822 -51.808849,0 -93.80822,-41.99937 -93.80822,-93.80822 0,-51.808849 41.999371,-93.80822 93.80822,-93.80822 51.80885,0 93.80822,41.999371 93.80822,93.80822 z"
       sodipodi:ry="93.80822"
       sodipodi:rx="93.80822"
       sodipodi:cy="115"
       sodipodi:cx="111"
       id="path5003"
       style="fill:none;stroke:#000000;stroke-width:2;stroke-linecap:round;stroke-linejoin:round;stroke-miterlimit:4;stroke-opacity:1;stroke-dasharray:none;stroke-dashoffset:0"
       sodipodi:type="arc" />
    <path
       sodipodi:type="arc"
       style="fill:none;stroke:#000000;stroke-width:2;stroke-linecap:round;stroke-linejoin:round;stroke-miterlimit:4;stroke-opacity:1;stroke-dasharray:none;stroke-dashoffset:0"
       id="path5005"
       sodipodi:cx="111"
       sodipodi:cy="115"
       sodipodi:rx="71.363014"
       sodipodi:ry="71.363014"
       d="m 182.36301,115 c 0,39.4127 -31.95031,71.36301 -71.36301,71.36301 -39.412704,0 -71.363014,-31.95031 -71.363014,-71.36301 0,-39.412704 31.95031,-71.363014 71.363014,-71.363014 39.4127,0 71.36301,31.95031 71.36301,71.363014 z"
       transform="translate(2,824.36218)" />
    <path
       transform="translate(2,824.36218)"
       d="m 149.85616,115 c 0,21.45967 -17.39649,38.85616 -38.85616,38.85616 -21.459666,0 -38.856163,-17.39649 -38.856163,-38.85616 0,-21.459666 17.396497,-38.856163 38.856163,-38.856163 21.45967,0 38.85616,17.396497 38.85616,38.856163 z"
       sodipodi:ry="38.856163"
       sodipodi:rx="38.856163"
       sodipodi:cy="115"
       sodipodi:cx="111"
       id="path5007"
       style="fill:none;stroke:#000000;stroke-width:2;stroke-linecap:round;stroke-linejoin:round;stroke-miterlimit:4;stroke-opacity:1;stroke-dasharray:none;stroke-dashoffset:0"
       sodipodi:type="arc" />
    <path
       style="fill:none;stroke:#000000;stroke-width:2;stroke-linecap:round;stroke-linejoin:round;stroke-opacity:1;stroke-miterlimit:4;stroke-dasharray:none"
       d="m 113,13 -0.76355,199.99715"
       id="path5009"
       transform="translate(0,826.36218)" />
    <path
       style="fill:none;stroke:#000000;stroke-width:2;stroke-linecap:round;stroke-linejoin:round;stroke-opacity:1;stroke-miterlimit:4;stroke-dasharray:none"
       d="M 13.002897,113.76931 213,113"
       id="path5011"
       transform="translate(0,826.36218)" />
    <path
       style="fill:none;stroke:#000000;stroke-width:2;stroke-linecap:round;stroke-linejoin:round;stroke-opacity:1;stroke-miterlimit:4;stroke-dasharray:none"
       d="M 184.09602,42.676766 43.04563,184.45903"
       id="path5013"
       transform="translate(0,826.36218)" />
    <path
       style="fill:none;stroke:#000000;stroke-width:2;stroke-linecap:round;stroke-linejoin:round;stroke-opacity:1;stroke-miterlimit:4;stroke-dasharray:none"
       d="M 73.598052,21.061905 151.47135,205.33186"
       id="path5015"
       transform="translate(0,826.36218)" />
    <path
       style="fill:none;stroke:#000000;stroke-width:2;stroke-linecap:round;stroke-linejoin:round;stroke-opacity:1;stroke-miterlimit:4;stroke-dasharray:none"
       d="M 151.47135,20.668142 75.455441,205.71299"
       id="path5017"
       transform="translate(0,826.36218)" />
    <path
       style="fill:none;stroke:#000000;stroke-width:2;stroke-linecap:round;stroke-linejoin:round;stroke-opacity:1;stroke-miterlimit:4;stroke-dasharray:none"
       d="M 205.76428,75.582219 20.943032,152.12377"
       id="path5019"
       transform="translate(0,826.36218)" />
    <path
       style="fill:none;stroke:#000000;stroke-width:2;stroke-linecap:round;stroke-linejoin:round;stroke-opacity:1;stroke-miterlimit:4;stroke-dasharray:none"
       d="M 41.912146,42.668508 182.94625,184.46699"
       id="path5021"
       transform="translate(0,826.36218)" />
    <path
       style="fill:none;stroke:#000000;stroke-width:2;stroke-linecap:round;stroke-linejoin:round;stroke-opacity:1;stroke-miterlimit:4;stroke-dasharray:none"
       d="M 20.444865,75.068362 205.17334,151.84917"
       id="path5023"
       transform="translate(0,826.36218)" />
  </g>
</svg>
