<?xml version="1.0" encoding="UTF-8" standalone="no"?>
<!-- Created with Inkscape (http://www.inkscape.org/) -->

<svg
   xmlns:dc="http://purl.org/dc/elements/1.1/"
   xmlns:cc="http://creativecommons.org/ns#"
   xmlns:rdf="http://www.w3.org/1999/02/22-rdf-syntax-ns#"
   xmlns:svg="http://www.w3.org/2000/svg"
   xmlns="http://www.w3.org/2000/svg"
   xmlns:sodipodi="http://sodipodi.sourceforge.net/DTD/sodipodi-0.dtd"
   xmlns:inkscape="http://www.inkscape.org/namespaces/inkscape"
   width="226"
   height="226"
   id="svg2"
   version="1.1"
   inkscape:version="0.47 r22583"
   sodipodi:docname="grat3.svg">
  <defs
     id="defs4" />
  <sodipodi:namedview
     id="base"
     pagecolor="#ffffff"
     bordercolor="#666666"
     borderopacity="1.0"
     inkscape:pageopacity="0.0"
     inkscape:pageshadow="2"
     inkscape:zoom="1"
     inkscape:cx="96.366186"
     inkscape:cy="108.76493"
     inkscape:document-units="px"
     inkscape:current-layer="layer1"
     showgrid="false"
     inkscape:window-width="613"
     inkscape:window-height="499"
     inkscape:window-x="0"
     inkscape:window-y="206"
     inkscape:window-maximized="0"
     inkscape:object-paths="true" />
  <metadata
     id="metadata7">
    <rdf:RDF>
      <cc:Work
         rdf:about="">
        <dc:format>image/svg+xml</dc:format>
        <dc:type
           rdf:resource="http://purl.org/dc/dcmitype/StillImage" />
        <dc:title></dc:title>
      </cc:Work>
    </rdf:RDF>
  </metadata>
  <g
     inkscape:label="Layer 1"
     inkscape:groupmode="layer"
     id="layer1"
     transform="translate(0,-826.36218)">
    <rect
       style="fill:#ffffff;fill-opacity:1;stroke:none"
       id="rect5166"
       width="226"
       height="226"
       x="0"
       y="0"
       transform="translate(0,826.36218)" />
    <path
       sodipodi:type="arc"
       style="fill:none;stroke:#000000;stroke-width:2;stroke-linecap:round;stroke-linejoin:round;stroke-miterlimit:4;stroke-opacity:1;stroke-dasharray:none;stroke-dashoffset:0"
       id="path2959"
       sodipodi:cx="111"
       sodipodi:cy="115"
       sodipodi:rx="100"
       sodipodi:ry="100"
       d="m 211,115 a 100,100 0 1 1 -200,0 100,100 0 1 1 200,0 z"
       transform="translate(2,824.36218)" />
    <path
       sodipodi:type="arc"
       style="fill:none;fill-opacity:1;stroke:#000000;stroke-opacity:1;stroke-width:2;stroke-miterlimit:4;stroke-dasharray:none;stroke-linejoin:round;stroke-linecap:round"
       id="path5286"
       sodipodi:cx="113"
       sodipodi:cy="75.25"
       sodipodi:rx="92"
       sodipodi:ry="8.25"
       d="m 205,75.25 a 92,8.25 0 1 1 -184,0 92,8.25 0 1 1 184,0 z"
       transform="translate(0,826.36218)" />
    <path
       sodipodi:type="arc"
       style="fill:none;stroke:#000000;stroke-width:2;stroke-linecap:round;stroke-linejoin:round;stroke-miterlimit:4;stroke-opacity:1;stroke-dasharray:none;stroke-dashoffset:0"
       id="path5288"
       sodipodi:cx="113"
       sodipodi:cy="42.5"
       sodipodi:rx="70.5"
       sodipodi:ry="5.75"
       d="m 183.5,42.5 a 70.5,5.75 0 1 1 -141,0 70.5,5.75 0 1 1 141,0 z"
       transform="translate(0,826.98718)" />
    <path
       transform="translate(0,967.36218)"
       d="m 183.5,42.5 a 70.5,5.75 0 1 1 -141,0 70.5,5.75 0 1 1 141,0 z"
       sodipodi:ry="5.75"
       sodipodi:rx="70.5"
       sodipodi:cy="42.5"
       sodipodi:cx="113"
       id="path5290"
       style="fill:none;stroke:#000000;stroke-width:2;stroke-linecap:round;stroke-linejoin:round;stroke-miterlimit:4;stroke-opacity:1;stroke-dasharray:none;stroke-dashoffset:0"
       sodipodi:type="arc" />
    <path
       transform="translate(0,901.61218)"
       d="m 205,75.25 a 92,8.25 0 1 1 -184,0 92,8.25 0 1 1 184,0 z"
       sodipodi:ry="8.25"
       sodipodi:rx="92"
       sodipodi:cy="75.25"
       sodipodi:cx="113"
       id="path5292"
       style="fill:none;stroke:#000000;stroke-width:2;stroke-linecap:round;stroke-linejoin:round;stroke-miterlimit:4;stroke-opacity:1;stroke-dasharray:none"
       sodipodi:type="arc" />
    <path
       sodipodi:type="arc"
       style="fill:none;stroke:#000000;stroke-width:2;stroke-linecap:round;stroke-linejoin:round;stroke-miterlimit:4;stroke-opacity:1;stroke-dasharray:none;stroke-dashoffset:0"
       id="path5294"
       sodipodi:cx="113"
       sodipodi:cy="112.75"
       sodipodi:rx="99.5"
       sodipodi:ry="8.5"
       d="m 212.5,112.75 a 99.5,8.5 0 1 1 -199,0 99.5,8.5 0 1 1 199,0 z"
       transform="translate(0,826.86218)" />
    <path
       style="fill:none;stroke:#000000;stroke-width:2;stroke-linecap:round;stroke-linejoin:round;stroke-opacity:1;stroke-miterlimit:4;stroke-dasharray:none"
       d="m 113,13 0,200"
       id="path5296"
       transform="translate(0,826.36218)" />
  </g>
</svg>
