<?xml version="1.0" encoding="UTF-8" standalone="no"?>
<!-- Created with Inkscape (http://www.inkscape.org/) -->

<svg
   xmlns:dc="http://purl.org/dc/elements/1.1/"
   xmlns:cc="http://creativecommons.org/ns#"
   xmlns:rdf="http://www.w3.org/1999/02/22-rdf-syntax-ns#"
   xmlns:svg="http://www.w3.org/2000/svg"
   xmlns="http://www.w3.org/2000/svg"
   xmlns:sodipodi="http://sodipodi.sourceforge.net/DTD/sodipodi-0.dtd"
   xmlns:inkscape="http://www.inkscape.org/namespaces/inkscape"
   width="534"
   height="226"
   id="svg2"
   version="1.1"
   inkscape:version="0.47 r22583"
   sodipodi:docname="rot-trunc.svg">
  <defs
     id="defs4" />
  <sodipodi:namedview
     id="base"
     pagecolor="#ffffff"
     bordercolor="#666666"
     borderopacity="1.0"
     inkscape:pageopacity="0.0"
     inkscape:pageshadow="2"
     inkscape:zoom="1"
     inkscape:cx="309.24752"
     inkscape:cy="106.4315"
     inkscape:document-units="px"
     inkscape:current-layer="layer1"
     showgrid="false"
     inkscape:window-width="1268"
     inkscape:window-height="744"
     inkscape:window-x="0"
     inkscape:window-y="0"
     inkscape:window-maximized="0"
     inkscape:object-paths="false"
     inkscape:object-nodes="true"
     inkscape:snap-smooth-nodes="false"
     inkscape:snap-center="false" />
  <metadata
     id="metadata7">
    <rdf:RDF>
      <cc:Work
         rdf:about="">
        <dc:format>image/svg+xml</dc:format>
        <dc:type
           rdf:resource="http://purl.org/dc/dcmitype/StillImage" />
        <dc:title />
      </cc:Work>
    </rdf:RDF>
  </metadata>
  <g
     inkscape:label="Layer 1"
     inkscape:groupmode="layer"
     id="layer1"
     transform="translate(0,-826.36218)">
    <rect
       style="fill:#ffffff;fill-opacity:1;stroke:none"
       id="rect5245"
       width="534"
       height="226"
       x="0"
       y="0"
       transform="translate(0,826.36218)" />
    <path
       style="fill:none;stroke:#808080;stroke-width:4;stroke-linecap:butt;stroke-linejoin:miter;stroke-miterlimit:4;stroke-opacity:1;stroke-dasharray:none"
       d="m 29.5,939.36218 475,0"
       id="path3746"
       sodipodi:nodetypes="cc" />
    <path
       style="fill:none;stroke:#000000;stroke-width:2;stroke-linecap:butt;stroke-linejoin:miter;stroke-miterlimit:4;stroke-opacity:1;stroke-dasharray:none"
       d="m 65,859.36218 0,160.00002"
       id="path2825"
       sodipodi:nodetypes="cc" />
    <path
       sodipodi:type="arc"
       style="fill:#0000ff;fill-opacity:1;stroke:none"
       id="path2827"
       sodipodi:cx="69"
       sodipodi:cy="22"
       sodipodi:rx="3.1248918"
       sodipodi:ry="3.1248918"
       d="m 72.124892,22 a 3.1248918,3.1248918 0 1 1 -6.249784,0 3.1248918,3.1248918 0 1 1 6.249784,0 z"
       transform="translate(-4,837.36218)" />
    <path
       transform="translate(-4,877.36218)"
       d="m 72.124892,22 a 3.1248918,3.1248918 0 1 1 -6.249784,0 3.1248918,3.1248918 0 1 1 6.249784,0 z"
       sodipodi:ry="3.1248918"
       sodipodi:rx="3.1248918"
       sodipodi:cy="22"
       sodipodi:cx="69"
       id="path3603"
       style="fill:#0000ff;fill-opacity:1;stroke:none"
       sodipodi:type="arc" />
    <path
       sodipodi:type="arc"
       style="fill:#0000ff;fill-opacity:1;stroke:none"
       id="path3605"
       sodipodi:cx="69"
       sodipodi:cy="22"
       sodipodi:rx="3.1248918"
       sodipodi:ry="3.1248918"
       d="m 72.124892,22 a 3.1248918,3.1248918 0 1 1 -6.249784,0 3.1248918,3.1248918 0 1 1 6.249784,0 z"
       transform="translate(-4,917.36218)" />
    <path
       transform="translate(-4,957.36218)"
       d="m 72.124892,22 a 3.1248918,3.1248918 0 1 1 -6.249784,0 3.1248918,3.1248918 0 1 1 6.249784,0 z"
       sodipodi:ry="3.1248918"
       sodipodi:rx="3.1248918"
       sodipodi:cy="22"
       sodipodi:cx="69"
       id="path3607"
       style="fill:#0000ff;fill-opacity:1;stroke:none"
       sodipodi:type="arc" />
    <path
       sodipodi:type="arc"
       style="fill:#0000ff;fill-opacity:1;stroke:none"
       id="path3609"
       sodipodi:cx="69"
       sodipodi:cy="22"
       sodipodi:rx="3.1248918"
       sodipodi:ry="3.1248918"
       d="m 72.124892,22 a 3.1248918,3.1248918 0 1 1 -6.249784,0 3.1248918,3.1248918 0 1 1 6.249784,0 z"
       transform="translate(-4,997.36218)" />
    <path
       sodipodi:nodetypes="cc"
       id="path3658"
       d="m 164.99989,874.89719 0,128.93001"
       style="fill:none;stroke:#000000;stroke-width:2;stroke-linecap:butt;stroke-linejoin:miter;stroke-miterlimit:4;stroke-opacity:1;stroke-dasharray:none" />
    <path
       style="fill:none;stroke:#000000;stroke-width:2;stroke-linecap:butt;stroke-linejoin:miter;stroke-miterlimit:4;stroke-opacity:1;stroke-dasharray:none"
       d="m 264.99989,909.66932 0,59.38573"
       id="path3670"
       sodipodi:nodetypes="cc" />
    <path
       sodipodi:nodetypes="cc"
       id="path3682"
       d="m 364.99989,915.13987 0,48.44462"
       style="fill:none;stroke:#000000;stroke-width:1.99999988;stroke-linecap:butt;stroke-linejoin:miter;stroke-miterlimit:4;stroke-opacity:1;stroke-dasharray:none" />
    <path
       style="fill:#0000ff;stroke:#000000;stroke-width:2;stroke-linecap:butt;stroke-linejoin:miter;stroke-miterlimit:4;stroke-opacity:1;stroke-dasharray:none"
       d="m 326.99989,934.03813 0,10.64808"
       id="path3694"
       sodipodi:nodetypes="cc" />
    <path
       transform="translate(95.99989,852.89717)"
       d="m 72.124892,22 a 3.1248918,3.1248918 0 1 1 -6.249784,0 3.1248918,3.1248918 0 1 1 6.249784,0 z"
       sodipodi:ry="3.1248918"
       sodipodi:rx="3.1248918"
       sodipodi:cy="22"
       sodipodi:cx="69"
       id="path3706"
       style="fill:#0000ff;fill-opacity:1;stroke:none"
       sodipodi:type="arc" />
    <path
       sodipodi:type="arc"
       style="fill:#0000ff;fill-opacity:1;stroke:none"
       id="path3708"
       sodipodi:cx="69"
       sodipodi:cy="22"
       sodipodi:rx="3.1248918"
       sodipodi:ry="3.1248918"
       d="m 72.124892,22 a 3.1248918,3.1248918 0 1 1 -6.249784,0 3.1248918,3.1248918 0 1 1 6.249784,0 z"
       transform="translate(95.99989,885.12968)" />
    <path
       transform="translate(95.99989,917.3622)"
       d="m 72.124892,22 a 3.1248918,3.1248918 0 1 1 -6.249784,0 3.1248918,3.1248918 0 1 1 6.249784,0 z"
       sodipodi:ry="3.1248918"
       sodipodi:rx="3.1248918"
       sodipodi:cy="22"
       sodipodi:cx="69"
       id="path3710"
       style="fill:#0000ff;fill-opacity:1;stroke:none"
       sodipodi:type="arc" />
    <path
       sodipodi:type="arc"
       style="fill:#0000ff;fill-opacity:1;stroke:none"
       id="path3712"
       sodipodi:cx="69"
       sodipodi:cy="22"
       sodipodi:rx="3.1248918"
       sodipodi:ry="3.1248918"
       d="m 72.124892,22 a 3.1248918,3.1248918 0 1 1 -6.249784,0 3.1248918,3.1248918 0 1 1 6.249784,0 z"
       transform="translate(95.99989,949.59469)" />
    <path
       transform="translate(95.99989,981.82719)"
       d="m 72.124892,22 a 3.1248918,3.1248918 0 1 1 -6.249784,0 3.1248918,3.1248918 0 1 1 6.249784,0 z"
       sodipodi:ry="3.1248918"
       sodipodi:rx="3.1248918"
       sodipodi:cy="22"
       sodipodi:cx="69"
       id="path3714"
       style="fill:#0000ff;fill-opacity:1;stroke:none"
       sodipodi:type="arc" />
    <path
       sodipodi:type="arc"
       style="fill:#0000ff;fill-opacity:1;stroke:none"
       id="path3716"
       sodipodi:cx="69"
       sodipodi:cy="22"
       sodipodi:rx="3.1248918"
       sodipodi:ry="3.1248918"
       d="m 72.124892,22 a 3.1248918,3.1248918 0 1 1 -6.249784,0 3.1248918,3.1248918 0 1 1 6.249784,0 z"
       transform="translate(195.99989,887.66932)" />
    <path
       transform="translate(195.99989,902.51575)"
       d="m 72.124892,22 a 3.1248918,3.1248918 0 1 1 -6.249784,0 3.1248918,3.1248918 0 1 1 6.249784,0 z"
       sodipodi:ry="3.1248918"
       sodipodi:rx="3.1248918"
       sodipodi:cy="22"
       sodipodi:cx="69"
       id="path3718"
       style="fill:#0000ff;fill-opacity:1;stroke:none"
       sodipodi:type="arc" />
    <path
       sodipodi:type="arc"
       style="fill:#0000ff;fill-opacity:1;stroke:none"
       id="path3720"
       sodipodi:cx="69"
       sodipodi:cy="22"
       sodipodi:rx="3.1248918"
       sodipodi:ry="3.1248918"
       d="m 72.124892,22 a 3.1248918,3.1248918 0 1 1 -6.249784,0 3.1248918,3.1248918 0 1 1 6.249784,0 z"
       transform="translate(195.99989,917.36218)" />
    <path
       transform="translate(195.99989,932.20861)"
       d="m 72.124892,22 a 3.1248918,3.1248918 0 1 1 -6.249784,0 3.1248918,3.1248918 0 1 1 6.249784,0 z"
       sodipodi:ry="3.1248918"
       sodipodi:rx="3.1248918"
       sodipodi:cy="22"
       sodipodi:cx="69"
       id="path3722"
       style="fill:#0000ff;fill-opacity:1;stroke:none"
       sodipodi:type="arc" />
    <path
       sodipodi:type="arc"
       style="fill:#0000ff;fill-opacity:1;stroke:none"
       id="path3724"
       sodipodi:cx="69"
       sodipodi:cy="22"
       sodipodi:rx="3.1248918"
       sodipodi:ry="3.1248918"
       d="m 72.124892,22 a 3.1248918,3.1248918 0 1 1 -6.249784,0 3.1248918,3.1248918 0 1 1 6.249784,0 z"
       transform="translate(195.99989,947.05504)" />
    <path
       transform="translate(257.99989,912.03814)"
       d="m 72.124892,22 a 3.1248918,3.1248918 0 1 1 -6.249784,0 3.1248918,3.1248918 0 1 1 6.249784,0 z"
       sodipodi:ry="3.1248918"
       sodipodi:rx="3.1248918"
       sodipodi:cy="22"
       sodipodi:cx="69"
       id="path3726"
       style="fill:#0000ff;fill-opacity:1;stroke:none"
       sodipodi:type="arc" />
    <path
       sodipodi:type="arc"
       style="fill:#0000ff;fill-opacity:1;stroke:none"
       id="path3728"
       sodipodi:cx="69"
       sodipodi:cy="22"
       sodipodi:rx="3.1248918"
       sodipodi:ry="3.1248918"
       d="m 72.124892,22 a 3.1248918,3.1248918 0 1 1 -6.249784,0 3.1248918,3.1248918 0 1 1 6.249784,0 z"
       transform="translate(257.99989,914.70016)" />
    <path
       transform="translate(257.99989,917.36217)"
       d="m 72.124892,22 a 3.1248918,3.1248918 0 1 1 -6.249784,0 3.1248918,3.1248918 0 1 1 6.249784,0 z"
       sodipodi:ry="3.1248918"
       sodipodi:rx="3.1248918"
       sodipodi:cy="22"
       sodipodi:cx="69"
       id="path3730"
       style="fill:#0000ff;fill-opacity:1;stroke:none"
       sodipodi:type="arc" />
    <path
       sodipodi:type="arc"
       style="fill:#0000ff;fill-opacity:1;stroke:none"
       id="path3732"
       sodipodi:cx="69"
       sodipodi:cy="22"
       sodipodi:rx="3.1248918"
       sodipodi:ry="3.1248918"
       d="m 72.124892,22 a 3.1248918,3.1248918 0 1 1 -6.249784,0 3.1248918,3.1248918 0 1 1 6.249784,0 z"
       transform="translate(257.99989,920.02419)" />
    <path
       transform="translate(257.99989,922.68621)"
       d="m 72.124892,22 a 3.1248918,3.1248918 0 1 1 -6.249784,0 3.1248918,3.1248918 0 1 1 6.249784,0 z"
       sodipodi:ry="3.1248918"
       sodipodi:rx="3.1248918"
       sodipodi:cy="22"
       sodipodi:cx="69"
       id="path3734"
       style="fill:#0000ff;fill-opacity:1;stroke:none"
       sodipodi:type="arc" />
    <path
       sodipodi:type="arc"
       style="fill:#0000ff;fill-opacity:1;stroke:none"
       id="path3736"
       sodipodi:cx="69"
       sodipodi:cy="22"
       sodipodi:rx="3.1248918"
       sodipodi:ry="3.1248918"
       d="m 72.124892,22 a 3.1248918,3.1248918 0 1 1 -6.249784,0 3.1248918,3.1248918 0 1 1 6.249784,0 z"
       transform="translate(295.99989,893.13986)" />
    <path
       transform="translate(295.99989,905.25102)"
       d="m 72.124892,22 a 3.1248918,3.1248918 0 1 1 -6.249784,0 3.1248918,3.1248918 0 1 1 6.249784,0 z"
       sodipodi:ry="3.1248918"
       sodipodi:rx="3.1248918"
       sodipodi:cy="22"
       sodipodi:cx="69"
       id="path3738"
       style="fill:#0000ff;fill-opacity:1;stroke:none"
       sodipodi:type="arc" />
    <path
       sodipodi:type="arc"
       style="fill:#0000ff;fill-opacity:1;stroke:none"
       id="path3740"
       sodipodi:cx="69"
       sodipodi:cy="22"
       sodipodi:rx="3.1248918"
       sodipodi:ry="3.1248918"
       d="m 72.124892,22 a 3.1248918,3.1248918 0 1 1 -6.249784,0 3.1248918,3.1248918 0 1 1 6.249784,0 z"
       transform="translate(295.99989,917.36217)" />
    <path
       transform="translate(295.99989,929.47333)"
       d="m 72.124892,22 a 3.1248918,3.1248918 0 1 1 -6.249784,0 3.1248918,3.1248918 0 1 1 6.249784,0 z"
       sodipodi:ry="3.1248918"
       sodipodi:rx="3.1248918"
       sodipodi:cy="22"
       sodipodi:cx="69"
       id="path3742"
       style="fill:#0000ff;fill-opacity:1;stroke:none"
       sodipodi:type="arc" />
    <path
       sodipodi:type="arc"
       style="fill:#0000ff;fill-opacity:1;stroke:none"
       id="path3744"
       sodipodi:cx="69"
       sodipodi:cy="22"
       sodipodi:rx="3.1248918"
       sodipodi:ry="3.1248918"
       d="m 72.124892,22 a 3.1248918,3.1248918 0 1 1 -6.249784,0 3.1248918,3.1248918 0 1 1 6.249784,0 z"
       transform="translate(295.99989,941.58448)" />
    <path
       sodipodi:type="arc"
       style="fill:none;stroke:#ff0000;stroke-width:6;stroke-miterlimit:4;stroke-opacity:1;stroke-dasharray:none"
       id="path3748"
       sodipodi:cx="368.99988"
       sodipodi:cy="112.99999"
       sodipodi:rx="29.000111"
       sodipodi:ry="94.000008"
       d="m 392.22405,169.29576 a 29.000111,94.000008 0 1 1 5.77594,-56.29577"
       transform="translate(79,826.36218)"
       sodipodi:start="0.64211565"
       sodipodi:end="6.2831853"
       sodipodi:open="true" />
    <path
       style="fill:none;stroke:#ff0000;stroke-width:6;stroke-linecap:butt;stroke-linejoin:miter;stroke-miterlimit:4;stroke-opacity:1;stroke-dasharray:none"
       d="m 482.27373,1024.0098 -11.04968,-28.35186 -26.45032,11.85186"
       id="path3750"
       sodipodi:nodetypes="ccc" />
  </g>
</svg>
