<?xml version="1.0" encoding="UTF-8" standalone="no"?>
<!-- Created with Inkscape (http://www.inkscape.org/) -->

<svg
   xmlns:dc="http://purl.org/dc/elements/1.1/"
   xmlns:cc="http://creativecommons.org/ns#"
   xmlns:rdf="http://www.w3.org/1999/02/22-rdf-syntax-ns#"
   xmlns:svg="http://www.w3.org/2000/svg"
   xmlns="http://www.w3.org/2000/svg"
   xmlns:sodipodi="http://sodipodi.sourceforge.net/DTD/sodipodi-0.dtd"
   xmlns:inkscape="http://www.inkscape.org/namespaces/inkscape"
   width="534"
   height="226"
   id="svg2"
   version="1.1"
   inkscape:version="0.47 r22583"
   sodipodi:docname="rot-axis.svg">
  <defs
     id="defs4" />
  <sodipodi:namedview
     id="base"
     pagecolor="#ffffff"
     bordercolor="#666666"
     borderopacity="1.0"
     inkscape:pageopacity="0.0"
     inkscape:pageshadow="2"
     inkscape:zoom="1"
     inkscape:cx="287.95176"
     inkscape:cy="87.300962"
     inkscape:document-units="px"
     inkscape:current-layer="layer1"
     showgrid="false"
     inkscape:window-width="1268"
     inkscape:window-height="744"
     inkscape:window-x="0"
     inkscape:window-y="0"
     inkscape:window-maximized="0"
     inkscape:object-paths="false"
     inkscape:object-nodes="true"
     inkscape:snap-smooth-nodes="false"
     inkscape:snap-center="true" />
  <metadata
     id="metadata7">
    <rdf:RDF>
      <cc:Work
         rdf:about="">
        <dc:format>image/svg+xml</dc:format>
        <dc:type
           rdf:resource="http://purl.org/dc/dcmitype/StillImage" />
        <dc:title />
      </cc:Work>
    </rdf:RDF>
  </metadata>
  <g
     inkscape:label="Layer 1"
     inkscape:groupmode="layer"
     id="layer1"
     transform="translate(0,-826.36218)">
    <rect
       style="fill:#ffffff;fill-opacity:1;stroke:none"
       id="rect5245"
       width="534"
       height="226"
       x="0"
       y="0"
       transform="translate(0,826.36218)" />
    <path
       style="fill:none;stroke:#808080;stroke-width:4;stroke-linecap:butt;stroke-linejoin:miter;stroke-miterlimit:4;stroke-opacity:1;stroke-dasharray:none"
       d="m 29.5,939.36218 475,0"
       id="path3746"
       sodipodi:nodetypes="cc" />
    <path
       sodipodi:type="arc"
       style="fill:none;stroke:#ff0000;stroke-width:6;stroke-miterlimit:4;stroke-opacity:1;stroke-dasharray:none"
       id="path3748"
       sodipodi:cx="368.99988"
       sodipodi:cy="112.99999"
       sodipodi:rx="29.000111"
       sodipodi:ry="94.000008"
       d="m 392.22405,169.29576 c -9.59203,41.57493 -27.76572,50.0736 -40.59208,18.98231 -12.82636,-31.0913 -15.4483,-89.998909 -5.85627,-131.573842 9.59203,-41.574932 27.76573,-50.0736013 40.59208,-18.982309 7.32131,17.746952 11.63221,45.64505 11.63221,75.278071"
       transform="translate(47,826.36218)"
       sodipodi:start="0.64211565"
       sodipodi:end="6.2831853"
       sodipodi:open="true" />
    <path
       style="fill:none;stroke:#ff0000;stroke-width:6;stroke-linecap:butt;stroke-linejoin:miter;stroke-miterlimit:4;stroke-opacity:1;stroke-dasharray:none"
       d="m 450.27373,1024.0098 -11.04968,-28.35186 -26.45032,11.85186"
       id="path3750"
       sodipodi:nodetypes="ccc" />
    <path
       sodipodi:open="true"
       sodipodi:end="6.2831853"
       sodipodi:start="0.64211565"
       transform="translate(-53.00003,826.36218)"
       d="m 392.22405,169.29576 c -9.59203,41.57493 -27.76572,50.0736 -40.59208,18.98231 -12.82636,-31.0913 -15.4483,-89.998909 -5.85627,-131.573842 9.59203,-41.574932 27.76573,-50.0736013 40.59208,-18.982309 7.32131,17.746952 11.63221,45.64505 11.63221,75.278071"
       sodipodi:ry="94.000008"
       sodipodi:rx="29.000111"
       sodipodi:cy="112.99999"
       sodipodi:cx="368.99988"
       id="path2847"
       style="fill:none;stroke:#808080;stroke-width:2;stroke-miterlimit:4;stroke-opacity:1;stroke-dasharray:none"
       sodipodi:type="arc" />
    <path
       sodipodi:nodetypes="ccc"
       id="path2849"
       d="M 350.2737,1024.0098 339.22402,995.65794 312.7737,1007.5098"
       style="fill:none;stroke:#808080;stroke-width:2;stroke-linecap:butt;stroke-linejoin:miter;stroke-miterlimit:4;stroke-opacity:1;stroke-dasharray:none" />
    <path
       sodipodi:type="arc"
       style="fill:none;stroke:#808080;stroke-width:2;stroke-miterlimit:4;stroke-opacity:1;stroke-dasharray:none"
       id="path3657"
       sodipodi:cx="368.99988"
       sodipodi:cy="112.99999"
       sodipodi:rx="29.000111"
       sodipodi:ry="94.000008"
       d="m 392.22405,169.29576 c -9.59203,41.57493 -27.76572,50.0736 -40.59208,18.98231 -12.82636,-31.0913 -15.4483,-89.998909 -5.85627,-131.573842 9.59203,-41.574932 27.76573,-50.0736013 40.59208,-18.982309 7.32131,17.746952 11.63221,45.64505 11.63221,75.278071"
       transform="translate(-152.99998,826.36218)"
       sodipodi:start="0.64211565"
       sodipodi:end="6.2831853"
       sodipodi:open="true" />
    <path
       sodipodi:open="true"
       sodipodi:end="6.2831853"
       sodipodi:start="0.64211565"
       transform="translate(-252.99998,826.36218)"
       d="m 392.22405,169.29576 c -9.59203,41.57493 -27.76572,50.0736 -40.59208,18.98231 -12.82636,-31.0913 -15.4483,-89.998909 -5.85627,-131.573842 9.59203,-41.574932 27.76573,-50.0736013 40.59208,-18.982309 7.32131,17.746952 11.63221,45.64505 11.63221,75.278071"
       sodipodi:ry="94.000008"
       sodipodi:rx="29.000111"
       sodipodi:cy="112.99999"
       sodipodi:cx="368.99988"
       id="path3665"
       style="fill:none;stroke:#808080;stroke-width:2;stroke-miterlimit:4;stroke-opacity:1;stroke-dasharray:none"
       sodipodi:type="arc" />
    <path
       style="fill:none;stroke:#808080;stroke-width:2;stroke-linecap:butt;stroke-linejoin:miter;stroke-miterlimit:4;stroke-opacity:1;stroke-dasharray:none"
       d="M 250.274,1024.0098 239.22432,995.65794 212.774,1007.5098"
       id="path3679"
       sodipodi:nodetypes="ccc" />
    <path
       sodipodi:nodetypes="ccc"
       id="path3681"
       d="M 150.274,1024.0098 139.22432,995.65794 112.774,1007.5098"
       style="fill:none;stroke:#808080;stroke-width:2;stroke-linecap:butt;stroke-linejoin:miter;stroke-miterlimit:4;stroke-opacity:1;stroke-dasharray:none" />
    <path
       style="fill:none;stroke:#000000;stroke-width:2;stroke-linecap:butt;stroke-linejoin:miter;stroke-miterlimit:4;stroke-opacity:1;stroke-dasharray:none"
       d="m 288.91495,972.99003 -199.99995,0"
       id="path3675" />
    <g
       id="g3693"
       style="opacity:0.33300003"
       transform="translate(-4,0)">
      <path
         id="path3673"
         d="m 347.58472,910.3537 -199.99995,0"
         style="fill:none;stroke:#000000;stroke-width:2;stroke-linecap:butt;stroke-linejoin:miter;stroke-miterlimit:4;stroke-opacity:1;stroke-dasharray:none" />
      <path
         transform="translate(-28,826.36218)"
         d="m 381.58472,83.991516 c 0,3.313709 -2.68629,6 -6,6 -3.31371,0 -6,-2.686291 -6,-6 0,-3.313708 2.68629,-6 6,-6 3.31371,0 6,2.686292 6,6 z"
         sodipodi:ry="6"
         sodipodi:rx="6"
         sodipodi:cy="83.991516"
         sodipodi:cx="375.58472"
         id="path3639"
         style="fill:#0000ff;fill-opacity:1;stroke:none"
         sodipodi:type="arc" />
      <path
         sodipodi:type="arc"
         style="fill:#0000ff;fill-opacity:1;stroke:none"
         id="path3659"
         sodipodi:cx="375.58472"
         sodipodi:cy="83.991516"
         sodipodi:rx="6"
         sodipodi:ry="6"
         d="m 381.58472,83.991516 c 0,3.313709 -2.68629,6 -6,6 -3.31371,0 -6,-2.686291 -6,-6 0,-3.313708 2.68629,-6 6,-6 3.31371,0 6,2.686292 6,6 z"
         transform="translate(-127.99995,826.36218)" />
      <path
         transform="translate(-227.99995,826.36218)"
         d="m 381.58472,83.991516 c 0,3.313709 -2.68629,6 -6,6 -3.31371,0 -6,-2.686291 -6,-6 0,-3.313708 2.68629,-6 6,-6 3.31371,0 6,2.686292 6,6 z"
         sodipodi:ry="6"
         sodipodi:rx="6"
         sodipodi:cy="83.991516"
         sodipodi:cx="375.58472"
         id="path3667"
         style="fill:#0000ff;fill-opacity:1;stroke:none"
         sodipodi:type="arc" />
    </g>
    <path
       transform="translate(-131.99995,826.36218)"
       d="m 326.91495,146.62785 c 0,3.31371 -2.68629,6 -6,6 -3.31371,0 -6,-2.68629 -6,-6 0,-3.31371 2.68629,-6 6,-6 3.31371,0 6,2.68629 6,6 z"
       sodipodi:ry="6"
       sodipodi:rx="6"
       sodipodi:cy="146.62785"
       sodipodi:cx="320.91495"
       id="path3663"
       style="fill:#0000ff;fill-opacity:1;stroke:none"
       sodipodi:type="arc" />
    <path
       sodipodi:type="arc"
       style="fill:#0000ff;fill-opacity:1;stroke:none"
       id="path3643"
       sodipodi:cx="320.91495"
       sodipodi:cy="146.62785"
       sodipodi:rx="6"
       sodipodi:ry="6"
       d="m 326.91495,146.62785 c 0,3.31371 -2.68629,6 -6,6 -3.31371,0 -6,-2.68629 -6,-6 0,-3.31371 2.68629,-6 6,-6 3.31371,0 6,2.68629 6,6 z"
       transform="translate(-32,826.36218)" />
    <path
       sodipodi:type="arc"
       style="fill:#0000ff;fill-opacity:1;stroke:none"
       id="path3671"
       sodipodi:cx="320.91495"
       sodipodi:cy="146.62785"
       sodipodi:rx="6"
       sodipodi:ry="6"
       d="m 326.91495,146.62785 c 0,3.31371 -2.68629,6 -6,6 -3.31371,0 -6,-2.68629 -6,-6 0,-3.31371 2.68629,-6 6,-6 3.31371,0 6,2.68629 6,6 z"
       transform="translate(-231.99995,826.36218)" />
    <g
       id="g3699"
       style="opacity:0.66699997"
       transform="translate(-4,0)">
      <path
         id="path3677"
         d="m 299.92679,871.49918 -199.99995,0"
         style="fill:none;stroke:#000000;stroke-width:2;stroke-linecap:butt;stroke-linejoin:miter;stroke-miterlimit:4;stroke-opacity:1;stroke-dasharray:none" />
      <path
         transform="translate(-28,826.36218)"
         d="m 333.92679,45.137001 c 0,3.313709 -2.68629,6 -6,6 -3.31371,0 -6,-2.686291 -6,-6 0,-3.313708 2.68629,-6 6,-6 3.31371,0 6,2.686292 6,6 z"
         sodipodi:ry="6"
         sodipodi:rx="6"
         sodipodi:cy="45.137001"
         sodipodi:cx="327.92679"
         id="path3641"
         style="fill:#0000ff;fill-opacity:1;stroke:none"
         sodipodi:type="arc" />
      <path
         transform="translate(-227.99995,826.36218)"
         d="m 333.92679,45.137001 c 0,3.313709 -2.68629,6 -6,6 -3.31371,0 -6,-2.686291 -6,-6 0,-3.313708 2.68629,-6 6,-6 3.31371,0 6,2.686292 6,6 z"
         sodipodi:ry="6"
         sodipodi:rx="6"
         sodipodi:cy="45.137001"
         sodipodi:cx="327.92679"
         id="path3669"
         style="fill:#0000ff;fill-opacity:1;stroke:none"
         sodipodi:type="arc" />
      <path
         sodipodi:type="arc"
         style="fill:#0000ff;fill-opacity:1;stroke:none"
         id="path3661"
         sodipodi:cx="327.92679"
         sodipodi:cy="45.137001"
         sodipodi:rx="6"
         sodipodi:ry="6"
         d="m 333.92679,45.137001 c 0,3.313709 -2.68629,6 -6,6 -3.31371,0 -6,-2.686291 -6,-6 0,-3.313708 2.68629,-6 6,-6 3.31371,0 6,2.686292 6,6 z"
         transform="translate(-127.99995,826.36218)" />
    </g>
  </g>
</svg>
