<?xml version="1.0" encoding="UTF-8" standalone="no"?>
<!-- Created with Inkscape (http://www.inkscape.org/) -->

<svg
   xmlns:dc="http://purl.org/dc/elements/1.1/"
   xmlns:cc="http://creativecommons.org/ns#"
   xmlns:rdf="http://www.w3.org/1999/02/22-rdf-syntax-ns#"
   xmlns:svg="http://www.w3.org/2000/svg"
   xmlns="http://www.w3.org/2000/svg"
   xmlns:sodipodi="http://sodipodi.sourceforge.net/DTD/sodipodi-0.dtd"
   xmlns:inkscape="http://www.inkscape.org/namespaces/inkscape"
   width="202"
   height="101"
   id="svg2"
   version="1.1"
   inkscape:version="0.47 r22583"
   sodipodi:docname="slice_globe.svg">
  <defs
     id="defs4" />
  <sodipodi:namedview
     id="base"
     pagecolor="#ffffff"
     bordercolor="#666666"
     borderopacity="1.0"
     inkscape:pageopacity="0"
     inkscape:pageshadow="2"
     inkscape:zoom="2"
     inkscape:cx="92.836838"
     inkscape:cy="56.733406"
     inkscape:document-units="px"
     inkscape:current-layer="layer1"
     showgrid="false"
     objecttolerance="20"
     showguides="true"
     inkscape:guide-bbox="true"
     inkscape:window-width="790"
     inkscape:window-height="599"
     inkscape:window-x="64"
     inkscape:window-y="18"
     inkscape:window-maximized="0"
     inkscape:snap-global="true"
     inkscape:object-paths="false"
     inkscape:object-nodes="true"
     inkscape:snap-object-midpoints="false"
     inkscape:snap-page="false"
     inkscape:snap-nodes="true"
     inkscape:snap-intersection-paths="false" />
  <metadata
     id="metadata7">
    <rdf:RDF>
      <cc:Work
         rdf:about="">
        <dc:format>image/svg+xml</dc:format>
        <dc:type
           rdf:resource="http://purl.org/dc/dcmitype/StillImage" />
      </cc:Work>
    </rdf:RDF>
  </metadata>
  <g
     inkscape:label="Layer 1"
     inkscape:groupmode="layer"
     id="layer1">
    <rect
       style="fill:#ffffff;fill-opacity:1;stroke:none"
       id="rect3012"
       width="202"
       height="101"
       x="0"
       y="2.6171874e-06" />
    <path
       transform="translate(-48.375,-102.25)"
       d="m 133.5,152.75 a 34.25,34.25 0 1 1 -68.5,0 34.25,34.25 0 1 1 68.5,0 z"
       sodipodi:ry="34.25"
       sodipodi:rx="34.25"
       sodipodi:cy="152.75"
       sodipodi:cx="99.25"
       id="path2823"
       style="fill:none;stroke:#808080;stroke-width:3;stroke-linecap:round;stroke-linejoin:round;stroke-miterlimit:4;stroke-dasharray:none"
       sodipodi:type="arc" />
    <path
       style="fill:none;stroke:#000000;stroke-width:3;stroke-linecap:round;stroke-linejoin:round;stroke-miterlimit:4;stroke-opacity:1;stroke-dasharray:none"
       d="M 82.56131,37.47477 20.565829,66.465253"
       id="path2837" />
    <path
       style="fill:#ffffff;stroke:#808080;stroke-width:3;stroke-linecap:round;stroke-linejoin:round;stroke-miterlimit:4;stroke-dasharray:none"
       d="m 120.90625,70.75 c 5.80094,10.672995 16.96684,18 29.96875,18 18.91575,0 34.25,-15.334247 34.25,-34.25 0,-4.569383 -0.93855,-8.920524 -2.5625,-12.90625"
       id="path3611"
       sodipodi:nodetypes="cssc" />
    <path
       id="path3636"
       style="fill:none;stroke:#000000;stroke-width:3;stroke-linecap:round;stroke-linejoin:round;stroke-miterlimit:4;stroke-dasharray:none"
       d="m 120.90625,70.75 c 0.27119,0.354765 0.54691,0.717314 1.09375,0.96875 0.713,0.327838 1.66729,0.566322 2.78125,0.71875 1.11396,0.15243 2.4054,0.21019 3.84375,0.1875 1.43835,-0.02269 3.00132,-0.146221 4.6875,-0.34375 3.37236,-0.395058 7.15827,-1.126082 11.0625,-2.21875 1.95212,-0.546334 3.93602,-1.185946 5.90625,-1.90625 1.97023,-0.720304 3.93198,-1.512263 5.84375,-2.40625 1.91177,-0.893987 3.80052,-1.88262 5.625,-2.9375 1.82448,-1.05488 3.5973,-2.188713 5.28125,-3.34375 3.3679,-2.310073 6.38872,-4.747471 8.875,-7.09375 1.24314,-1.17314 2.36963,-2.315164 3.3125,-3.40625 0.94287,-1.091086 1.72315,-2.145453 2.3125,-3.09375 0.58935,-0.948297 0.97366,-1.81773 1.15625,-2.5625 0.17027,-0.694508 0.10319,-1.252257 -0.125,-1.71875 -0.27119,-0.354765 -0.54691,-0.717314 -1.09375,-0.96875 -0.713,-0.327838 -1.66729,-0.566322 -2.78125,-0.71875 -1.11396,-0.15243 -2.4054,-0.21019 -3.84375,-0.1875 -1.43835,0.02269 -3.00132,0.146221 -4.6875,0.34375 -3.37236,0.395058 -7.15827,1.126082 -11.0625,2.21875 -1.95212,0.546334 -3.93602,1.185946 -5.90625,1.90625 -1.97023,0.720304 -3.93198,1.512263 -5.84375,2.40625 -1.91177,0.893987 -3.80052,1.88262 -5.625,2.9375 -1.82448,1.05488 -3.5973,2.188713 -5.28125,3.34375 -3.3679,2.310073 -6.38872,4.747471 -8.875,7.09375 -1.24314,1.17314 -2.36963,2.315164 -3.3125,3.40625 -0.94287,1.091086 -1.72315,2.145453 -2.3125,3.09375 -0.58935,0.948297 -0.97366,1.81773 -1.15625,2.5625 -0.17027,0.694508 -0.10319,1.252257 0.125,1.71875 z"
       sodipodi:nodetypes="cssssssssssssscsssssssssssssc" />
    <path
       style="fill:#ffffff;fill-opacity:1;stroke:#808080;stroke-width:3;stroke-linecap:round;stroke-linejoin:round;stroke-miterlimit:4;stroke-dasharray:none"
       d="M 176.5625,29.59375 C 171.46383,17.079871 159.22137,8.25 144.875,8.25 c -18.91575,0 -34.25,15.334247 -34.25,34.25 0,5.913838 1.64273,11.395456 4.28125,16.25 0.27119,0.354765 0.54691,0.717314 1.09375,0.96875 0.713,0.327838 1.66729,0.566322 2.78125,0.71875 1.11396,0.152428 2.4054,0.210195 3.84375,0.1875 1.43835,-0.02269 3.00132,-0.146221 4.6875,-0.34375 3.37236,-0.395058 7.15827,-1.126082 11.0625,-2.21875 1.95212,-0.546334 3.93602,-1.185946 5.90625,-1.90625 1.97023,-0.720304 3.93198,-1.512263 5.84375,-2.40625 1.91177,-0.893987 3.80052,-1.88262 5.625,-2.9375 1.82448,-1.05488 3.5973,-2.188713 5.28125,-3.34375 3.3679,-2.310073 6.38872,-4.747471 8.875,-7.09375 1.24314,-1.17314 2.36963,-2.315164 3.3125,-3.40625 0.94287,-1.091086 1.72315,-2.145453 2.3125,-3.09375 0.58935,-0.948297 0.97366,-1.81773 1.15625,-2.5625 0.17027,-0.694508 0.10319,-1.252257 -0.125,-1.71875 z"
       id="path3632" />
  </g>
</svg>
